<svg width="136" height="26" viewBox="0 0 136 26" fill="none" xmlns="http://www.w3.org/2000/svg">
<rect width="136" height="26" rx="5" fill="#E4B455"/>
<path d="M30.0312 12.0059L30.6172 12.0107C31.0469 12.0107 31.4082 11.8984 31.7012 11.6738C31.9974 11.446 32.1667 11.1383 32.209 10.751C32.2513 10.3734 32.1813 10.0771 31.999 9.8623C31.8167 9.64421 31.5514 9.5319 31.2031 9.52539C30.832 9.51888 30.5163 9.62793 30.2559 9.85254C29.9987 10.0739 29.8408 10.3734 29.7822 10.751L28.9082 10.7559C28.9635 10.1699 29.2126 9.69466 29.6553 9.33008C30.1012 8.96224 30.6318 8.78158 31.2471 8.78809C31.8428 8.80111 32.3099 8.98828 32.6484 9.34961C32.9902 9.70768 33.1383 10.1813 33.0928 10.7705C33.0635 11.1058 32.9349 11.4118 32.707 11.6885C32.4792 11.9652 32.1634 12.1947 31.7598 12.377C32.082 12.5072 32.3229 12.7139 32.4824 12.9971C32.6419 13.277 32.7087 13.6058 32.6826 13.9834C32.6305 14.6247 32.375 15.1406 31.916 15.5312C31.4603 15.9219 30.9053 16.1107 30.251 16.0977C29.6423 16.0846 29.1572 15.8958 28.7959 15.5312C28.4346 15.1667 28.2669 14.6963 28.293 14.1201L29.1768 14.125C29.1572 14.4896 29.2451 14.7842 29.4404 15.0088C29.6357 15.2301 29.9189 15.3473 30.29 15.3604C30.7067 15.3734 31.0534 15.2546 31.3301 15.0039C31.6068 14.7533 31.7646 14.418 31.8037 13.998C31.8395 13.6107 31.7516 13.3096 31.54 13.0947C31.3285 12.8766 31.0127 12.7611 30.5928 12.748L29.9141 12.7432L30.0312 12.0059ZM35.8027 16.0977C35.2038 16.0846 34.7546 15.873 34.4551 15.4629C34.1556 15.0495 34.0189 14.4554 34.0449 13.6807C34.0514 13.4398 34.0693 13.2021 34.0986 12.9678L34.2744 11.7812C34.4307 10.7689 34.7285 10.0137 35.168 9.51562C35.6074 9.01758 36.1868 8.77669 36.9062 8.79297C37.5117 8.80599 37.9626 9.01432 38.2588 9.41797C38.5583 9.81836 38.6966 10.401 38.6738 11.166C38.6641 11.4102 38.6445 11.6494 38.6152 11.8838L38.4443 13.0312C38.2718 14.1022 37.9674 14.8851 37.5312 15.3799C37.0951 15.8747 36.5189 16.1139 35.8027 16.0977ZM37.7607 11.7227C37.8063 11.3288 37.8275 11.0228 37.8242 10.8047C37.8079 9.97786 37.4873 9.55306 36.8623 9.53027C36.4066 9.514 36.0371 9.68327 35.7539 10.0381C35.474 10.3896 35.2786 10.943 35.168 11.6982L34.958 13.1143C34.9124 13.4919 34.8913 13.7995 34.8945 14.0371C34.9108 14.8997 35.2298 15.3424 35.8516 15.3652C36.2845 15.3848 36.641 15.2253 36.9209 14.8867C37.2041 14.5482 37.4059 14.0111 37.5264 13.2754L37.7607 11.7227ZM41.5596 8.7832C41.9535 8.79622 42.266 8.94108 42.4971 9.21777C42.7314 9.49121 42.8356 9.83789 42.8096 10.2578L42.7803 10.6338C42.7314 11.07 42.5589 11.4264 42.2627 11.7031C41.9697 11.9798 41.6198 12.1117 41.2129 12.0986C40.819 12.0921 40.5033 11.9489 40.2656 11.6689C40.028 11.389 39.9222 11.0439 39.9482 10.6338L39.9775 10.3213C40.0199 9.85254 40.1891 9.47819 40.4854 9.19824C40.7848 8.91504 41.1429 8.77669 41.5596 8.7832ZM40.6074 10.6436C40.5911 10.9072 40.6383 11.1172 40.749 11.2734C40.863 11.4264 41.0241 11.5062 41.2324 11.5127C41.4538 11.5192 41.6458 11.4411 41.8086 11.2783C41.9746 11.1123 42.0755 10.8975 42.1113 10.6338L42.1553 10.2529C42.1781 10.0055 42.1357 9.79883 42.0283 9.63281C41.9209 9.4668 41.7581 9.38053 41.54 9.37402C41.3154 9.36751 41.1201 9.44727 40.9541 9.61328C40.7881 9.7793 40.6872 9.99414 40.6514 10.2578L40.6074 10.6436ZM44.2207 12.7871C44.6243 12.8001 44.9417 12.9466 45.1729 13.2266C45.404 13.5033 45.5065 13.8467 45.4805 14.2568L45.4512 14.584C45.4089 15.043 45.2396 15.4157 44.9434 15.7021C44.6504 15.9854 44.2956 16.1204 43.8789 16.1074C43.4883 16.1009 43.1725 15.9593 42.9316 15.6826C42.694 15.4059 42.5882 15.0576 42.6143 14.6377L42.6436 14.3057C42.6859 13.8532 42.8519 13.4854 43.1416 13.2021C43.4313 12.9189 43.791 12.7806 44.2207 12.7871ZM43.2734 14.6475C43.2572 14.9079 43.3027 15.1178 43.4102 15.2773C43.5208 15.4336 43.6836 15.515 43.8984 15.5215C44.1263 15.528 44.32 15.4482 44.4795 15.2822C44.6423 15.1162 44.7415 14.9014 44.7773 14.6377L44.8213 14.252C44.8441 14.0078 44.8018 13.8027 44.6943 13.6367C44.5869 13.4707 44.4242 13.3844 44.2061 13.3779C43.9749 13.3714 43.778 13.4512 43.6152 13.6172C43.4525 13.7832 43.3532 13.9964 43.3174 14.2568L43.2734 14.6475ZM40.7539 15.4531L40.2705 15.1016L44.5723 9.59375L45.0557 9.94043L40.7539 15.4531ZM49.0107 13.3486C49.0758 12.8115 49.224 12.3265 49.4551 11.8936C49.6862 11.4606 49.971 11.1367 50.3096 10.9219C50.6481 10.707 51.0208 10.6045 51.4277 10.6143C52.0169 10.6273 52.4694 10.8421 52.7852 11.2588L53.293 8.5H54.1768L52.8779 16H52.0723L52.165 15.4336C51.7484 15.8893 51.234 16.1107 50.6221 16.0977C50.1338 16.0846 49.7448 15.8942 49.4551 15.5264C49.1654 15.1553 49.0091 14.6589 48.9863 14.0371C48.9766 13.8451 48.9847 13.6156 49.0107 13.3486ZM49.8604 13.8564C49.8506 14.3219 49.9336 14.6833 50.1094 14.9404C50.2852 15.1976 50.5423 15.3294 50.8809 15.3359C51.3919 15.3587 51.846 15.1016 52.2432 14.5645L52.6631 12.123C52.4678 11.6413 52.113 11.3939 51.5986 11.3809C51.2503 11.3711 50.9427 11.4769 50.6758 11.6982C50.4121 11.9163 50.2103 12.224 50.0703 12.6211C49.9336 13.015 49.8636 13.4268 49.8604 13.8564ZM56.5596 16.0977C55.902 16.0846 55.3877 15.8421 55.0166 15.3701C54.6455 14.8981 54.4893 14.2943 54.5479 13.5586L54.5723 13.3486C54.6276 12.8245 54.7822 12.346 55.0361 11.9131C55.2933 11.4801 55.6058 11.1546 55.9736 10.9365C56.3415 10.7152 56.7386 10.6094 57.165 10.6191C57.7087 10.6322 58.1351 10.8128 58.4443 11.1611C58.7536 11.5094 58.9229 11.9814 58.9521 12.5771C58.9619 12.7887 58.9554 13.0003 58.9326 13.2119L58.8789 13.6172H55.4268C55.3682 14.0957 55.4463 14.5026 55.6611 14.8379C55.8792 15.1732 56.2031 15.3473 56.6328 15.3604C57.1536 15.3734 57.6354 15.139 58.0781 14.6572L58.5859 15.0869C58.3646 15.4059 58.0781 15.6566 57.7266 15.8389C57.3783 16.0179 56.9893 16.1042 56.5596 16.0977ZM57.1211 11.3564C56.7565 11.3467 56.4375 11.4704 56.1641 11.7275C55.8939 11.9847 55.679 12.3672 55.5195 12.875L58.0879 12.8799L58.1074 12.8018C58.1595 12.3916 58.0928 12.0514 57.9072 11.7812C57.7249 11.5078 57.4629 11.3662 57.1211 11.3564ZM62.165 13.3486C62.2301 12.8115 62.3783 12.3265 62.6094 11.8936C62.8405 11.4606 63.1253 11.1367 63.4639 10.9219C63.8024 10.707 64.1751 10.6045 64.582 10.6143C65.1712 10.6273 65.6237 10.8421 65.9395 11.2588L66.4473 8.5H67.3311L66.0322 16H65.2266L65.3193 15.4336C64.9027 15.8893 64.3883 16.1107 63.7764 16.0977C63.2881 16.0846 62.8991 15.8942 62.6094 15.5264C62.3197 15.1553 62.1634 14.6589 62.1406 14.0371C62.1309 13.8451 62.139 13.6156 62.165 13.3486ZM63.0146 13.8564C63.0049 14.3219 63.0879 14.6833 63.2637 14.9404C63.4395 15.1976 63.6966 15.3294 64.0352 15.3359C64.5462 15.3587 65.0003 15.1016 65.3975 14.5645L65.8174 12.123C65.6221 11.6413 65.2673 11.3939 64.7529 11.3809C64.4046 11.3711 64.097 11.4769 63.8301 11.6982C63.5664 11.9163 63.3646 12.224 63.2246 12.6211C63.0879 13.015 63.0179 13.4268 63.0146 13.8564ZM69.7139 16.0977C69.0563 16.0846 68.542 15.8421 68.1709 15.3701C67.7998 14.8981 67.6436 14.2943 67.7021 13.5586L67.7266 13.3486C67.7819 12.8245 67.9365 12.346 68.1904 11.9131C68.4476 11.4801 68.7601 11.1546 69.1279 10.9365C69.4958 10.7152 69.8929 10.6094 70.3193 10.6191C70.863 10.6322 71.2894 10.8128 71.5986 11.1611C71.9079 11.5094 72.0771 11.9814 72.1064 12.5771C72.1162 12.7887 72.1097 13.0003 72.0869 13.2119L72.0332 13.6172H68.5811C68.5225 14.0957 68.6006 14.5026 68.8154 14.8379C69.0335 15.1732 69.3574 15.3473 69.7871 15.3604C70.3079 15.3734 70.7897 15.139 71.2324 14.6572L71.7402 15.0869C71.5189 15.4059 71.2324 15.6566 70.8809 15.8389C70.5326 16.0179 70.1436 16.1042 69.7139 16.0977ZM70.2754 11.3564C69.9108 11.3467 69.5918 11.4704 69.3184 11.7275C69.0482 11.9847 68.8333 12.3672 68.6738 12.875L71.2422 12.8799L71.2617 12.8018C71.3138 12.3916 71.2471 12.0514 71.0615 11.7812C70.8792 11.5078 70.6172 11.3662 70.2754 11.3564ZM75.8857 14.5693C75.9346 14.2048 75.7344 13.9476 75.2852 13.7979L74.3672 13.5293C73.5924 13.2624 73.2181 12.8197 73.2441 12.2012C73.2669 11.7357 73.4785 11.3548 73.8789 11.0586C74.2826 10.7591 74.7562 10.6126 75.2998 10.6191C75.8337 10.6257 76.2666 10.7819 76.5986 11.0879C76.9339 11.3906 77.0951 11.7861 77.082 12.2744L76.2031 12.2695C76.2096 12.0059 76.1266 11.791 75.9541 11.625C75.7816 11.459 75.5521 11.3727 75.2656 11.3662C74.9596 11.3597 74.696 11.4346 74.4746 11.5908C74.2695 11.7373 74.1507 11.9294 74.1182 12.167C74.0758 12.473 74.263 12.696 74.6797 12.8359L75.124 12.958C75.7295 13.1143 76.1592 13.3177 76.4131 13.5684C76.667 13.819 76.7842 14.1299 76.7646 14.501C76.7451 14.8298 76.6377 15.1162 76.4424 15.3604C76.2471 15.6045 75.9867 15.7917 75.6611 15.9219C75.3356 16.0488 74.9889 16.1074 74.6211 16.0977C74.0612 16.0911 73.599 15.9284 73.2344 15.6094C72.8698 15.2871 72.694 14.8737 72.707 14.3691L73.5908 14.374C73.5908 14.6702 73.6852 14.9079 73.874 15.0869C74.0628 15.266 74.3216 15.3555 74.6504 15.3555C74.9727 15.362 75.251 15.2952 75.4854 15.1553C75.7197 15.012 75.8532 14.8167 75.8857 14.5693ZM79.8945 15.3652C80.2103 15.3717 80.4951 15.2806 80.749 15.0918C81.0029 14.8997 81.1689 14.6491 81.2471 14.3398L82.082 14.335C82.0332 14.667 81.8997 14.9697 81.6816 15.2432C81.4668 15.5166 81.195 15.7298 80.8662 15.8828C80.5374 16.0358 80.2005 16.1074 79.8555 16.0977C79.416 16.0911 79.0433 15.9772 78.7373 15.7559C78.4346 15.5312 78.2116 15.2204 78.0684 14.8232C77.9251 14.4229 77.8763 13.9736 77.9219 13.4756L77.9463 13.2314C78.0081 12.7236 78.1562 12.2695 78.3906 11.8691C78.625 11.4688 78.931 11.1579 79.3086 10.9365C79.6862 10.7119 80.1029 10.6061 80.5586 10.6191C81.112 10.6322 81.5547 10.8177 81.8867 11.1758C82.2188 11.5339 82.3848 11.988 82.3848 12.5381L81.5596 12.5332C81.5531 12.1882 81.457 11.9098 81.2715 11.6982C81.0859 11.4834 80.8353 11.3695 80.5195 11.3564C80.0605 11.3467 79.6781 11.5176 79.3721 11.8691C79.0693 12.2207 78.8805 12.7122 78.8057 13.3438L78.791 13.4707C78.7715 13.679 78.7682 13.8939 78.7812 14.1152C78.804 14.4961 78.9115 14.7972 79.1035 15.0186C79.2956 15.2399 79.5592 15.3555 79.8945 15.3652ZM86.1445 15.4775C85.7311 15.904 85.2054 16.1107 84.5674 16.0977C84.0628 16.0846 83.6885 15.904 83.4443 15.5557C83.2035 15.2074 83.1139 14.7321 83.1758 14.1299L83.7422 10.7168H84.626L84.0547 14.1445C84.0384 14.2878 84.0352 14.4277 84.0449 14.5645C84.0612 14.7988 84.1312 14.9827 84.2549 15.1162C84.3786 15.2497 84.5511 15.3213 84.7725 15.3311C85.404 15.3506 85.8923 15.0951 86.2373 14.5645L86.9014 10.7168H87.7852L86.8672 16H86.0322L86.1445 15.4775ZM90.4756 16.0977C89.818 16.0846 89.3037 15.8421 88.9326 15.3701C88.5615 14.8981 88.4053 14.2943 88.4639 13.5586L88.4883 13.3486C88.5436 12.8245 88.6982 12.346 88.9521 11.9131C89.2093 11.4801 89.5218 11.1546 89.8896 10.9365C90.2575 10.7152 90.6546 10.6094 91.0811 10.6191C91.6247 10.6322 92.0511 10.8128 92.3604 11.1611C92.6696 11.5094 92.8389 11.9814 92.8682 12.5771C92.8779 12.7887 92.8714 13.0003 92.8486 13.2119L92.7949 13.6172H89.3428C89.2842 14.0957 89.3623 14.5026 89.5771 14.8379C89.7952 15.1732 90.1191 15.3473 90.5488 15.3604C91.0697 15.3734 91.5514 15.139 91.9941 14.6572L92.502 15.0869C92.2806 15.4059 91.9941 15.6566 91.6426 15.8389C91.2943 16.0179 90.9053 16.1042 90.4756 16.0977ZM91.0371 11.3564C90.6725 11.3467 90.3535 11.4704 90.0801 11.7275C89.8099 11.9847 89.5951 12.3672 89.4355 12.875L92.0039 12.8799L92.0234 12.8018C92.0755 12.3916 92.0088 12.0514 91.8232 11.7812C91.641 11.5078 91.3789 11.3662 91.0371 11.3564ZM95.1289 10.7119L95.002 11.3809C95.4772 10.86 96.0176 10.6061 96.623 10.6191C97.1211 10.6322 97.4889 10.8047 97.7266 11.1367C97.9642 11.4688 98.0521 11.9359 97.9902 12.5381L97.4141 16H96.5303L97.1113 12.5234C97.1309 12.3639 97.1325 12.2158 97.1162 12.0791C97.0609 11.6234 96.7923 11.3906 96.3105 11.3809C95.7799 11.3711 95.3145 11.6543 94.9141 12.2305L94.2598 16H93.376L94.2939 10.7168L95.1289 10.7119ZM101.11 9.4375L100.886 10.7168H101.848L101.726 11.415H100.769L100.217 14.7012C100.207 14.7858 100.205 14.8639 100.212 14.9355C100.235 15.1895 100.373 15.3164 100.627 15.3164C100.734 15.3164 100.878 15.3001 101.057 15.2676L100.988 16.0049C100.777 16.0635 100.562 16.0928 100.344 16.0928C99.9922 16.0863 99.7285 15.9577 99.5527 15.707C99.377 15.4531 99.3086 15.113 99.3477 14.6865L99.8848 11.415H98.9521L99.0742 10.7168H100.007L100.231 9.4375H101.11ZM104.836 10.6191C105.279 10.6257 105.658 10.7461 105.974 10.9805C106.289 11.2148 106.522 11.5387 106.672 11.9521C106.825 12.3623 106.877 12.8115 106.828 13.2998L106.818 13.4072C106.757 13.9215 106.604 14.387 106.359 14.8037C106.115 15.2171 105.799 15.5394 105.412 15.7705C105.025 16.0016 104.6 16.1107 104.138 16.0977C103.698 16.0911 103.319 15.9707 103 15.7363C102.684 15.502 102.453 15.1829 102.307 14.7793C102.16 14.3757 102.108 13.9313 102.15 13.4463C102.199 12.8994 102.347 12.4079 102.595 11.9717C102.842 11.5355 103.16 11.1986 103.547 10.9609C103.938 10.7201 104.367 10.6061 104.836 10.6191ZM103.039 13.4512C103.016 13.6562 103.016 13.8695 103.039 14.0908C103.072 14.4749 103.186 14.7809 103.381 15.0088C103.579 15.2367 103.843 15.3555 104.172 15.3652C104.465 15.375 104.735 15.3034 104.982 15.1504C105.23 14.9941 105.438 14.7598 105.607 14.4473C105.777 14.1348 105.886 13.7881 105.935 13.4072C105.961 13.1077 105.965 12.8555 105.949 12.6504C105.91 12.2565 105.791 11.9456 105.593 11.7178C105.394 11.4899 105.131 11.3695 104.802 11.3564C104.346 11.3467 103.959 11.5257 103.64 11.8936C103.321 12.2614 103.124 12.7432 103.049 13.3389L103.039 13.4512Z" fill="black"/>
</svg>
