<svg width="18" height="18" viewBox="0 0 18 18" fill="none" xmlns="http://www.w3.org/2000/svg">
<g clip-path="url(#clip0)">
<path d="M17.2368 6.87708H13.5025L11.4078 1.75413C11.2912 1.46909 10.9804 1.33884 10.7135 1.46339C10.4466 1.58786 10.3247 1.91991 10.4413 2.20498L12.3516 6.87711H5.64777L7.55816 2.20498C7.6747 1.91991 7.55285 1.5879 7.28595 1.46339C7.01907 1.33884 6.70815 1.46902 6.59165 1.75413L4.4969 6.87708H0.762638C0.274142 6.87708 -0.0883888 7.34941 0.0184862 7.84659L1.98495 16.9947C2.06303 17.3579 2.3722 17.6161 2.7291 17.6161H15.2703C15.6272 17.6161 15.9364 17.3579 16.0145 16.9947L17.9809 7.84659C18.0878 7.34944 17.7252 6.87708 17.2368 6.87708ZM4.59611 8.60449C4.52565 8.60449 4.45404 8.58932 4.38531 8.55725C4.11841 8.43278 3.99652 8.10077 4.1131 7.81565L4.50924 6.84681H5.66011L5.07961 8.26647C4.99309 8.47821 4.79938 8.60449 4.59611 8.60449ZM6.36299 14.6122C6.36299 14.9233 6.12688 15.1754 5.83565 15.1754C5.54441 15.1754 5.3083 14.9233 5.3083 14.6122V10.4818C5.3083 10.1707 5.54441 9.91856 5.83565 9.91856C6.12688 9.91856 6.36299 10.1707 6.36299 10.4818V14.6122ZM9.52705 14.6122C9.52705 14.9233 9.29094 15.1754 8.99971 15.1754C8.70847 15.1754 8.47236 14.9233 8.47236 14.6122V10.4818C8.47236 10.1707 8.70847 9.91856 8.99971 9.91856C9.29094 9.91856 9.52705 10.1707 9.52705 10.4818V14.6122ZM12.6911 14.6122C12.6911 14.9233 12.455 15.1754 12.1638 15.1754C11.8725 15.1754 11.6364 14.9233 11.6364 14.6122V10.4818C11.6364 10.1707 11.8725 9.91856 12.1638 9.91856C12.455 9.91856 12.6911 10.1707 12.6911 10.4818V14.6122ZM13.6141 8.55725C13.5454 8.58932 13.4738 8.60449 13.4033 8.60449C13.2 8.60449 13.0063 8.47825 12.9198 8.26651L12.3393 6.84685H13.4901L13.8863 7.81569C14.0029 8.10077 13.881 8.43278 13.6141 8.55725Z" fill="white"/>
</g>
<defs>
<clipPath id="clip0">
<rect width="18" height="18" fill="white"/>
</clipPath>
</defs>
</svg>
