<svg width="40" height="40" viewBox="0 0 40 40" fill="none" xmlns="http://www.w3.org/2000/svg">
<g clip-path="url(#clip0)">
<path d="M39.3019 30.1218C39.3169 30.1188 39.3316 30.1147 39.3464 30.1109C39.359 30.1077 39.3717 30.105 39.3841 30.1012C39.3985 30.0968 39.4127 30.0914 39.4268 30.0863C39.4393 30.0818 39.4519 30.0777 39.4642 30.0725C39.4775 30.067 39.4904 30.0605 39.5033 30.0544C39.5159 30.0484 39.5288 30.0428 39.5412 30.0361C39.5535 30.0295 39.5652 30.022 39.5772 30.0148C39.5896 30.0074 39.6021 30.0005 39.6141 29.9924C39.627 29.9838 39.6389 29.9743 39.6513 29.9651C39.6617 29.9573 39.6723 29.95 39.6825 29.9417C39.7012 29.9263 39.719 29.9099 39.7364 29.893C39.7395 29.89 39.7429 29.8875 39.746 29.8843C39.7492 29.8811 39.752 29.8775 39.7551 29.8742C39.7718 29.857 39.788 29.8395 39.8032 29.821C39.8122 29.8101 39.8199 29.7988 39.8282 29.7875C39.8368 29.776 39.8458 29.7648 39.8538 29.7527C39.8624 29.7399 39.8699 29.7266 39.8777 29.7134C39.8843 29.7023 39.8914 29.6914 39.8975 29.68C39.9047 29.6667 39.9107 29.6529 39.9171 29.6394C39.9227 29.6273 39.9287 29.6154 39.9339 29.6031C39.9395 29.5898 39.9439 29.5762 39.9488 29.5627C39.9535 29.5495 39.9586 29.5364 39.9626 29.523C39.9668 29.5094 39.9698 29.4955 39.9733 29.4816C39.9766 29.468 39.9806 29.4545 39.9832 29.4408C39.9865 29.4245 39.9884 29.408 39.9907 29.3916C39.9924 29.3801 39.9946 29.3686 39.9957 29.3569C39.9986 29.3281 40.0001 29.2993 40.0001 29.2704V10.7288C40.0001 10.2496 39.6118 9.86133 39.1326 9.86133H11.8074C11.7998 9.86133 11.7924 9.86225 11.7847 9.86248C11.7682 9.86295 11.7518 9.86364 11.7353 9.86503C11.7223 9.86607 11.7093 9.86757 11.6964 9.86931C11.6815 9.87116 11.6669 9.87336 11.6522 9.87602C11.6384 9.87845 11.6248 9.88134 11.6112 9.88446C11.5975 9.8877 11.5837 9.89117 11.57 9.8951C11.5565 9.89892 11.5432 9.90308 11.53 9.90748C11.5165 9.9121 11.503 9.91696 11.4897 9.92228C11.4771 9.92726 11.4647 9.93234 11.4524 9.9379C11.4388 9.94403 11.4252 9.95062 11.4118 9.95744C11.4004 9.96334 11.3892 9.96936 11.3781 9.97572C11.3646 9.98335 11.3514 9.99145 11.3384 9.99978C11.3276 10.0067 11.3171 10.0139 11.3067 10.0212C11.2944 10.0298 11.2823 10.0389 11.2704 10.0484C11.2595 10.057 11.2489 10.0659 11.2383 10.0751C11.2279 10.0842 11.2176 10.0933 11.2076 10.1031C11.1961 10.1141 11.1851 10.1255 11.1743 10.1371C11.1688 10.1428 11.163 10.1479 11.1578 10.1538C11.1547 10.1573 11.1523 10.1611 11.1493 10.1646C11.1384 10.1772 11.1282 10.1904 11.118 10.2037C11.1106 10.2134 11.103 10.2231 11.0961 10.2331C11.087 10.246 11.0787 10.2593 11.0704 10.2727C11.0636 10.2837 11.0565 10.2946 11.0503 10.3058C11.043 10.3188 11.0366 10.3321 11.03 10.3454C11.024 10.3575 11.0178 10.3697 11.0123 10.382C11.0067 10.3951 11.0017 10.4086 10.9967 10.4219C10.9917 10.435 10.9866 10.448 10.9824 10.4612C10.9781 10.4745 10.9746 10.488 10.9709 10.5015C10.9672 10.5154 10.9633 10.5292 10.9602 10.5432C10.9573 10.5562 10.9553 10.5695 10.953 10.5827C10.9504 10.5978 10.9479 10.6128 10.9461 10.6278C10.9445 10.6403 10.9439 10.653 10.9429 10.6658C10.9418 10.682 10.9407 10.6981 10.9405 10.7145C10.9404 10.7192 10.9398 10.7238 10.9398 10.7286V16.0782C10.9398 16.5574 11.3281 16.9457 11.8073 16.9457C12.2865 16.9457 12.6747 16.5574 12.6747 16.0782V12.6552L20.3872 19.4835C20.347 19.5119 20.3082 19.5432 20.2721 19.5792L12.6746 27.1767V21.4759C12.6746 20.9967 12.2863 20.6084 11.8072 20.6084C11.328 20.6084 10.9397 20.9967 10.9397 21.4759V22.5358H6.45777C5.97858 22.5358 5.5903 22.9241 5.5903 23.4033C5.5903 23.8825 5.97858 24.2708 6.45777 24.2708H10.9397V29.271C10.9397 29.7502 11.328 30.1385 11.8072 30.1385H39.1324C39.161 30.1385 39.1895 30.137 39.218 30.1342C39.2313 30.1329 39.2441 30.1304 39.2572 30.1285C39.2722 30.1264 39.287 30.1247 39.3019 30.1218ZM38.2651 27.1768L30.6674 19.5793C30.6626 19.5744 30.6574 19.5704 30.6524 19.5658L36.3641 14.7198C36.7294 14.4099 36.7743 13.8626 36.4643 13.4972C36.1546 13.132 35.6072 13.0869 35.2416 13.397L25.4819 21.6773L14.0957 11.5964H38.2651V27.1768ZM21.4991 20.8062C21.561 20.7444 21.6112 20.6754 21.6504 20.6021L24.8948 23.4746C25.0588 23.6197 25.2643 23.6926 25.4699 23.6926C25.6695 23.6926 25.8691 23.624 26.0312 23.4866L29.3377 20.6813C29.3677 20.7253 29.4016 20.7673 29.4406 20.8062L37.0381 28.4038H13.9016L21.4991 20.8062Z" fill="white"/>
<path d="M0.867468 19.7408H15.5181C15.9973 19.7408 16.3855 19.3525 16.3855 18.8733C16.3855 18.3941 15.9973 18.0058 15.5181 18.0058H0.867468C0.388279 18.0058 0 18.3941 0 18.8733C0 19.3525 0.388279 19.7408 0.867468 19.7408Z" fill="white"/>
<path d="M2.38557 14.9603H8.96387C9.44306 14.9603 9.83133 14.5721 9.83133 14.0929C9.83133 13.6137 9.44306 13.2254 8.96387 13.2254H2.38557C1.90638 13.2254 1.5181 13.6137 1.5181 14.0929C1.5181 14.5721 1.90638 14.9603 2.38557 14.9603Z" fill="white"/>
<path d="M7.2289 26.1987H0.867468C0.388279 26.1987 0 26.5869 0 27.0661C0 27.5453 0.388279 27.9336 0.867468 27.9336H7.2289C7.70809 27.9336 8.09637 27.5453 8.09637 27.0661C8.09637 26.5869 7.70809 26.1987 7.2289 26.1987Z" fill="white"/>
</g>
<defs>
<clipPath id="clip0">
<rect width="40" height="40" fill="white"/>
</clipPath>
</defs>
</svg>
