<svg width="259" height="238" viewBox="0 0 259 238" fill="none" xmlns="http://www.w3.org/2000/svg">
<rect width="66" height="66" rx="33" fill="#786960"/>
<rect x="4" y="4" width="58" height="57" rx="28.5" fill="#8A8787"/>
<path d="M40.0125 39.7321C44.8011 32.218 44.1991 33.1555 44.3371 32.9596C46.0805 30.5006 47.002 27.6064 47.002 24.5898C47.002 16.59 40.5103 10 32.5 10C24.5158 10 17.998 16.577 17.998 24.5898C17.998 27.6045 18.9388 30.5744 20.7394 33.0665L24.9873 39.7322C20.4455 40.4301 12.7246 42.51 12.7246 47.0898C12.7246 48.7593 13.8143 51.1385 19.0054 52.9925C22.6302 54.287 27.4226 55 32.5 55C41.9944 55 52.2754 52.3218 52.2754 47.0898C52.2754 42.5092 44.5635 40.4315 40.0125 39.7321ZM22.9418 31.6163C22.9273 31.5936 22.9122 31.5714 22.8964 31.5496C21.3981 29.4884 20.6348 27.0456 20.6348 24.5898C20.6348 17.9965 25.9439 12.6367 32.5 12.6367C39.0425 12.6367 44.3652 17.9988 44.3652 24.5898C44.3652 27.0496 43.6163 29.4095 42.1991 31.4164C42.0721 31.5839 42.7347 30.5545 32.5 46.6143L22.9418 31.6163ZM32.5 52.3633C22.1294 52.3633 15.3613 49.315 15.3613 47.0898C15.3613 45.5943 18.839 43.1352 26.5452 42.1767L31.3882 49.776C31.6302 50.1558 32.0495 50.3857 32.4999 50.3857C32.9504 50.3857 33.3697 50.1557 33.6116 49.776L38.4545 42.1767C46.1609 43.1352 49.6387 45.5943 49.6387 47.0898C49.6387 49.2961 42.9315 52.3633 32.5 52.3633Z" fill="white"/>
<path d="M32.5 17.998C28.8653 17.998 25.9082 20.9551 25.9082 24.5898C25.9082 28.2246 28.8653 31.1816 32.5 31.1816C36.1347 31.1816 39.0918 28.2246 39.0918 24.5898C39.0918 20.9551 36.1347 17.998 32.5 17.998ZM32.5 28.5449C30.3192 28.5449 28.5449 26.7707 28.5449 24.5898C28.5449 22.409 30.3192 20.6348 32.5 20.6348C34.6808 20.6348 36.4551 22.409 36.4551 24.5898C36.4551 26.7707 34.6808 28.5449 32.5 28.5449Z" fill="white"/>
<path d="M95.1992 15.6465H101.42V18H92.2695V3.78125H95.1992V15.6465ZM102.484 12.6191C102.484 11.571 102.686 10.6367 103.09 9.81641C103.493 8.99609 104.073 8.36133 104.828 7.91211C105.59 7.46289 106.472 7.23828 107.475 7.23828C108.9 7.23828 110.062 7.67448 110.961 8.54688C111.866 9.41927 112.37 10.6042 112.475 12.1016L112.494 12.8242C112.494 14.4453 112.042 15.7474 111.137 16.7305C110.232 17.707 109.018 18.1953 107.494 18.1953C105.971 18.1953 104.753 17.707 103.842 16.7305C102.937 15.7539 102.484 14.4258 102.484 12.7461V12.6191ZM105.307 12.8242C105.307 13.8268 105.495 14.5951 105.873 15.1289C106.251 15.6562 106.791 15.9199 107.494 15.9199C108.178 15.9199 108.712 15.6595 109.096 15.1387C109.48 14.6113 109.672 13.7715 109.672 12.6191C109.672 11.6361 109.48 10.8743 109.096 10.334C108.712 9.79362 108.171 9.52344 107.475 9.52344C106.785 9.52344 106.251 9.79362 105.873 10.334C105.495 10.8678 105.307 11.6979 105.307 12.8242ZM118.627 15.9199C119.148 15.9199 119.571 15.7767 119.896 15.4902C120.222 15.2038 120.391 14.8229 120.404 14.3477H123.051C123.044 15.0638 122.849 15.7214 122.465 16.3203C122.081 16.9128 121.553 17.375 120.883 17.707C120.219 18.0326 119.483 18.1953 118.676 18.1953C117.165 18.1953 115.974 17.7168 115.102 16.7598C114.229 15.7962 113.793 14.4681 113.793 12.7754V12.5898C113.793 10.9622 114.226 9.66341 115.092 8.69336C115.958 7.72331 117.146 7.23828 118.656 7.23828C119.978 7.23828 121.036 7.61589 121.83 8.37109C122.631 9.11979 123.038 10.1191 123.051 11.3691H120.404C120.391 10.8223 120.222 10.3796 119.896 10.041C119.571 9.69596 119.141 9.52344 118.607 9.52344C117.95 9.52344 117.452 9.76432 117.113 10.2461C116.781 10.7214 116.615 11.4961 116.615 12.5703V12.8633C116.615 13.9505 116.781 14.7318 117.113 15.207C117.445 15.6823 117.95 15.9199 118.627 15.9199ZM130.785 18C130.655 17.7461 130.561 17.4303 130.502 17.0527C129.818 17.8145 128.93 18.1953 127.836 18.1953C126.801 18.1953 125.941 17.8958 125.258 17.2969C124.581 16.6979 124.242 15.9427 124.242 15.0312C124.242 13.9115 124.656 13.0521 125.482 12.4531C126.316 11.8542 127.517 11.5514 129.086 11.5449H130.385V10.9395C130.385 10.4512 130.258 10.0605 130.004 9.76758C129.757 9.47461 129.363 9.32812 128.822 9.32812C128.347 9.32812 127.973 9.44206 127.699 9.66992C127.432 9.89779 127.299 10.2103 127.299 10.6074H124.477C124.477 9.99544 124.665 9.42904 125.043 8.9082C125.421 8.38737 125.954 7.98047 126.645 7.6875C127.335 7.38802 128.109 7.23828 128.969 7.23828C130.271 7.23828 131.303 7.56706 132.064 8.22461C132.833 8.87565 133.217 9.79362 133.217 10.9785V15.5586C133.223 16.5612 133.363 17.3197 133.637 17.834V18H130.785ZM128.451 16.0371C128.868 16.0371 129.252 15.946 129.604 15.7637C129.955 15.5749 130.215 15.3242 130.385 15.0117V13.1953H129.33C127.917 13.1953 127.165 13.6836 127.074 14.6602L127.064 14.8262C127.064 15.1777 127.188 15.4674 127.436 15.6953C127.683 15.9232 128.021 16.0371 128.451 16.0371ZM138.363 18H135.531V3H138.363V18ZM143.676 18H140.844V7.43359H143.676V18ZM140.678 4.69922C140.678 4.27604 140.818 3.92773 141.098 3.6543C141.384 3.38086 141.771 3.24414 142.26 3.24414C142.742 3.24414 143.126 3.38086 143.412 3.6543C143.699 3.92773 143.842 4.27604 143.842 4.69922C143.842 5.12891 143.695 5.48047 143.402 5.75391C143.116 6.02734 142.735 6.16406 142.26 6.16406C141.785 6.16406 141.4 6.02734 141.107 5.75391C140.821 5.48047 140.678 5.12891 140.678 4.69922ZM145.57 12.6387C145.57 10.9915 145.938 9.67969 146.674 8.70312C147.416 7.72656 148.428 7.23828 149.711 7.23828C150.74 7.23828 151.589 7.6224 152.26 8.39062V3H155.092V18H152.543L152.406 16.877C151.703 17.7559 150.798 18.1953 149.691 18.1953C148.448 18.1953 147.449 17.707 146.693 16.7305C145.945 15.7474 145.57 14.3835 145.57 12.6387ZM148.393 12.8438C148.393 13.8333 148.565 14.5918 148.91 15.1191C149.255 15.6465 149.757 15.9102 150.414 15.9102C151.286 15.9102 151.902 15.5423 152.26 14.8066V10.6367C151.908 9.90104 151.299 9.5332 150.434 9.5332C149.073 9.5332 148.393 10.6367 148.393 12.8438ZM163.402 18C163.272 17.7461 163.178 17.4303 163.119 17.0527C162.436 17.8145 161.547 18.1953 160.453 18.1953C159.418 18.1953 158.559 17.8958 157.875 17.2969C157.198 16.6979 156.859 15.9427 156.859 15.0312C156.859 13.9115 157.273 13.0521 158.1 12.4531C158.933 11.8542 160.134 11.5514 161.703 11.5449H163.002V10.9395C163.002 10.4512 162.875 10.0605 162.621 9.76758C162.374 9.47461 161.98 9.32812 161.439 9.32812C160.964 9.32812 160.59 9.44206 160.316 9.66992C160.049 9.89779 159.916 10.2103 159.916 10.6074H157.094C157.094 9.99544 157.283 9.42904 157.66 8.9082C158.038 8.38737 158.572 7.98047 159.262 7.6875C159.952 7.38802 160.727 7.23828 161.586 7.23828C162.888 7.23828 163.92 7.56706 164.682 8.22461C165.45 8.87565 165.834 9.79362 165.834 10.9785V15.5586C165.84 16.5612 165.98 17.3197 166.254 17.834V18H163.402ZM161.068 16.0371C161.485 16.0371 161.869 15.946 162.221 15.7637C162.572 15.5749 162.833 15.3242 163.002 15.0117V13.1953H161.947C160.535 13.1953 159.783 13.6836 159.691 14.6602L159.682 14.8262C159.682 15.1777 159.805 15.4674 160.053 15.6953C160.3 15.9232 160.639 16.0371 161.068 16.0371ZM167.562 12.6387C167.562 10.9915 167.93 9.67969 168.666 8.70312C169.408 7.72656 170.421 7.23828 171.703 7.23828C172.732 7.23828 173.581 7.6224 174.252 8.39062V3H177.084V18H174.535L174.398 16.877C173.695 17.7559 172.79 18.1953 171.684 18.1953C170.44 18.1953 169.441 17.707 168.686 16.7305C167.937 15.7474 167.562 14.3835 167.562 12.6387ZM170.385 12.8438C170.385 13.8333 170.557 14.5918 170.902 15.1191C171.247 15.6465 171.749 15.9102 172.406 15.9102C173.279 15.9102 173.894 15.5423 174.252 14.8066V10.6367C173.9 9.90104 173.292 9.5332 172.426 9.5332C171.065 9.5332 170.385 10.6367 170.385 12.8438Z" fill="white"/>
<path d="M97.2158 29.6318C97.1605 30.3968 96.8773 30.999 96.3662 31.4385C95.8584 31.8779 95.1878 32.0977 94.3545 32.0977C93.443 32.0977 92.7253 31.7917 92.2012 31.1797C91.6803 30.5645 91.4199 29.7214 91.4199 28.6504V28.2158C91.4199 27.5322 91.5404 26.93 91.7812 26.4092C92.0221 25.8883 92.3656 25.4896 92.8115 25.2129C93.2607 24.9329 93.7816 24.793 94.374 24.793C95.1943 24.793 95.8551 25.0127 96.3564 25.4521C96.8577 25.8916 97.1475 26.5085 97.2256 27.3027H95.7607C95.7249 26.8438 95.5964 26.5117 95.375 26.3066C95.1569 26.0983 94.8232 25.9941 94.374 25.9941C93.8857 25.9941 93.5195 26.1699 93.2754 26.5215C93.0345 26.8698 92.9108 27.4118 92.9043 28.1475V28.6846C92.9043 29.4528 93.0199 30.0143 93.251 30.3691C93.4854 30.724 93.8532 30.9014 94.3545 30.9014C94.807 30.9014 95.1439 30.7988 95.3652 30.5938C95.5898 30.3854 95.7184 30.0648 95.751 29.6318H97.2158ZM101.146 32C101.081 31.873 101.034 31.7152 101.005 31.5264C100.663 31.9072 100.219 32.0977 99.6719 32.0977C99.1543 32.0977 98.7246 31.9479 98.3828 31.6484C98.0443 31.349 97.875 30.9714 97.875 30.5156C97.875 29.9557 98.0817 29.526 98.4951 29.2266C98.9118 28.9271 99.5124 28.7757 100.297 28.7725H100.946V28.4697C100.946 28.2256 100.883 28.0303 100.756 27.8838C100.632 27.7373 100.435 27.6641 100.165 27.6641C99.9274 27.6641 99.7402 27.721 99.6035 27.835C99.4701 27.9489 99.4033 28.1051 99.4033 28.3037H97.9922C97.9922 27.9977 98.0866 27.7145 98.2754 27.4541C98.4642 27.1937 98.7311 26.9902 99.0762 26.8438C99.4212 26.694 99.8086 26.6191 100.238 26.6191C100.889 26.6191 101.405 26.7835 101.786 27.1123C102.17 27.4378 102.362 27.8968 102.362 28.4893V30.7793C102.366 31.2806 102.436 31.6598 102.572 31.917V32H101.146ZM99.9795 31.0186C100.188 31.0186 100.38 30.973 100.556 30.8818C100.731 30.7874 100.862 30.6621 100.946 30.5059V29.5977H100.419C99.7126 29.5977 99.3366 29.8418 99.291 30.3301L99.2861 30.4131C99.2861 30.5889 99.348 30.7337 99.4717 30.8477C99.5954 30.9616 99.7646 31.0186 99.9795 31.0186ZM104.936 32H103.52V24.5H104.936V32ZM107.592 32H106.176V24.5H107.592V32ZM111.19 32.0977C110.416 32.0977 109.784 31.86 109.296 31.3848C108.811 30.9095 108.568 30.2764 108.568 29.4854V29.3486C108.568 28.818 108.671 28.3444 108.876 27.9277C109.081 27.5078 109.371 27.1855 109.745 26.9609C110.123 26.7331 110.552 26.6191 111.034 26.6191C111.757 26.6191 112.325 26.847 112.738 27.3027C113.155 27.7585 113.363 28.4046 113.363 29.2412V29.8174H109.999C110.045 30.1624 110.181 30.4391 110.409 30.6475C110.64 30.8558 110.932 30.96 111.283 30.96C111.827 30.96 112.252 30.763 112.558 30.3691L113.251 31.1455C113.039 31.445 112.753 31.6794 112.392 31.8486C112.03 32.0146 111.63 32.0977 111.19 32.0977ZM111.029 27.7617C110.749 27.7617 110.521 27.8561 110.346 28.0449C110.173 28.2337 110.062 28.5039 110.014 28.8555H111.977V28.7432C111.97 28.4307 111.885 28.1898 111.723 28.0205C111.56 27.848 111.329 27.7617 111.029 27.7617ZM119.403 29.5244H116.654V28.3867H119.403V29.5244ZM127.782 29.4072C127.782 30.221 127.597 30.8737 127.226 31.3652C126.858 31.8535 126.36 32.0977 125.731 32.0977C125.198 32.0977 124.766 31.9121 124.438 31.541V34.0312H123.026V26.7168H124.335L124.384 27.2344C124.726 26.8242 125.172 26.6191 125.722 26.6191C126.373 26.6191 126.879 26.86 127.24 27.3418C127.602 27.8236 127.782 28.4876 127.782 29.334V29.4072ZM126.371 29.3047C126.371 28.8132 126.283 28.4339 126.107 28.167C125.935 27.9001 125.683 27.7666 125.351 27.7666C124.908 27.7666 124.604 27.9359 124.438 28.2744V30.4375C124.61 30.7858 124.918 30.96 125.36 30.96C126.034 30.96 126.371 30.4082 126.371 29.3047ZM131.63 28.04C131.438 28.014 131.269 28.001 131.122 28.001C130.588 28.001 130.238 28.1816 130.072 28.543V32H128.661V26.7168H129.994L130.033 27.3467C130.316 26.8617 130.709 26.6191 131.21 26.6191C131.366 26.6191 131.513 26.6403 131.649 26.6826L131.63 28.04ZM131.918 29.3096C131.918 28.7855 132.019 28.3184 132.221 27.9082C132.423 27.498 132.712 27.1807 133.09 26.9561C133.471 26.7314 133.912 26.6191 134.413 26.6191C135.126 26.6191 135.707 26.8372 136.156 27.2734C136.609 27.7096 136.861 28.3021 136.913 29.0508L136.923 29.4121C136.923 30.2227 136.697 30.8737 136.244 31.3652C135.792 31.8535 135.185 32.0977 134.423 32.0977C133.661 32.0977 133.052 31.8535 132.597 31.3652C132.144 30.877 131.918 30.2129 131.918 29.373V29.3096ZM133.329 29.4121C133.329 29.9134 133.424 30.2975 133.612 30.5645C133.801 30.8281 134.071 30.96 134.423 30.96C134.765 30.96 135.032 30.8298 135.224 30.5693C135.416 30.3057 135.512 29.8857 135.512 29.3096C135.512 28.818 135.416 28.4372 135.224 28.167C135.032 27.8968 134.761 27.7617 134.413 27.7617C134.068 27.7617 133.801 27.8968 133.612 28.167C133.424 28.4339 133.329 28.849 133.329 29.4121ZM139.691 30.2764L140.673 26.7168H142.147L140.365 32H139.018L137.235 26.7168H138.71L139.691 30.2764ZM144.262 32H142.846V26.7168H144.262V32ZM142.763 25.3496C142.763 25.138 142.833 24.9639 142.973 24.8271C143.116 24.6904 143.31 24.6221 143.554 24.6221C143.795 24.6221 143.987 24.6904 144.13 24.8271C144.273 24.9639 144.345 25.138 144.345 25.3496C144.345 25.5645 144.271 25.7402 144.125 25.877C143.982 26.0137 143.791 26.082 143.554 26.082C143.316 26.082 143.124 26.0137 142.978 25.877C142.834 25.7402 142.763 25.5645 142.763 25.3496ZM146.728 26.7168L146.771 27.3271C147.149 26.8551 147.655 26.6191 148.29 26.6191C148.85 26.6191 149.267 26.7835 149.54 27.1123C149.813 27.4411 149.953 27.9326 149.96 28.5869V32H148.549V28.6211C148.549 28.3216 148.484 28.1051 148.354 27.9717C148.223 27.835 148.007 27.7666 147.704 27.7666C147.307 27.7666 147.009 27.9359 146.811 28.2744V32H145.399V26.7168H146.728ZM153.231 30.96C153.492 30.96 153.703 30.8883 153.866 30.7451C154.029 30.6019 154.114 30.4115 154.12 30.1738H155.443C155.44 30.5319 155.342 30.8607 155.15 31.1602C154.958 31.4564 154.695 31.6875 154.359 31.8535C154.027 32.0163 153.66 32.0977 153.256 32.0977C152.501 32.0977 151.905 31.8584 151.469 31.3799C151.033 30.8981 150.814 30.234 150.814 29.3877V29.2949C150.814 28.4811 151.031 27.8317 151.464 27.3467C151.897 26.8617 152.491 26.6191 153.246 26.6191C153.907 26.6191 154.436 26.8079 154.833 27.1855C155.233 27.5599 155.437 28.0596 155.443 28.6846H154.12C154.114 28.4111 154.029 28.1898 153.866 28.0205C153.703 27.848 153.489 27.7617 153.222 27.7617C152.893 27.7617 152.644 27.8822 152.475 28.123C152.309 28.3607 152.226 28.748 152.226 29.2852V29.4316C152.226 29.9753 152.309 30.3659 152.475 30.6035C152.641 30.8411 152.893 30.96 153.231 30.96ZM157.738 32H156.322V26.7168H157.738V32ZM156.239 25.3496C156.239 25.138 156.309 24.9639 156.449 24.8271C156.592 24.6904 156.786 24.6221 157.03 24.6221C157.271 24.6221 157.463 24.6904 157.606 24.8271C157.75 24.9639 157.821 25.138 157.821 25.3496C157.821 25.5645 157.748 25.7402 157.602 25.877C157.458 26.0137 157.268 26.082 157.03 26.082C156.793 26.082 156.601 26.0137 156.454 25.877C156.311 25.7402 156.239 25.5645 156.239 25.3496ZM161.967 32C161.902 31.873 161.854 31.7152 161.825 31.5264C161.483 31.9072 161.039 32.0977 160.492 32.0977C159.975 32.0977 159.545 31.9479 159.203 31.6484C158.865 31.349 158.695 30.9714 158.695 30.5156C158.695 29.9557 158.902 29.526 159.315 29.2266C159.732 28.9271 160.333 28.7757 161.117 28.7725H161.767V28.4697C161.767 28.2256 161.703 28.0303 161.576 27.8838C161.452 27.7373 161.256 27.6641 160.985 27.6641C160.748 27.6641 160.561 27.721 160.424 27.835C160.29 27.9489 160.224 28.1051 160.224 28.3037H158.812C158.812 27.9977 158.907 27.7145 159.096 27.4541C159.285 27.1937 159.551 26.9902 159.896 26.8438C160.242 26.694 160.629 26.6191 161.059 26.6191C161.71 26.6191 162.226 26.7835 162.606 27.1123C162.991 27.4378 163.183 27.8968 163.183 28.4893V30.7793C163.186 31.2806 163.256 31.6598 163.393 31.917V32H161.967ZM160.8 31.0186C161.008 31.0186 161.2 30.973 161.376 30.8818C161.552 30.7874 161.682 30.6621 161.767 30.5059V29.5977H161.239C160.533 29.5977 160.157 29.8418 160.111 30.3301L160.106 30.4131C160.106 30.5889 160.168 30.7337 160.292 30.8477C160.416 30.9616 160.585 31.0186 160.8 31.0186Z" fill="#8A8787"/>
<rect y="172" width="66" height="66" rx="33" fill="#786960"/>
<rect x="4" y="176" width="58" height="57" rx="28.5" fill="#8A8787"/>
<path d="M48.625 200.798V191.375C48.625 189.307 46.9432 187.625 44.8749 187.625H16.7499C14.6818 187.625 13 189.307 13 191.375V210.125C13 212.193 14.6818 213.875 16.75 213.875H37.7748C39.0031 218.197 42.9771 221.375 47.6875 221.375C49.5003 221.375 51.2828 220.898 52.8447 219.994C53.2924 219.735 53.4462 219.162 53.1861 218.714C52.927 218.265 52.353 218.11 51.9053 218.372C50.6291 219.11 49.1706 219.5 47.6874 219.5C43.0347 219.5 39.2499 215.715 39.2499 211.063C39.2499 206.41 43.0348 202.625 47.6874 202.625C52.3401 202.625 56.1249 206.41 56.1249 211.063V212C56.1249 213.034 55.2836 213.875 54.25 213.875C53.2164 213.875 52.375 213.034 52.375 212V208.25C52.375 207.732 51.9557 207.312 51.4375 207.312C51.1853 207.312 50.9587 207.415 50.7904 207.576C49.9618 206.838 48.882 206.375 47.6874 206.375C45.1029 206.375 43 208.478 43 211.062C43 213.647 45.1029 215.75 47.6875 215.75C49.0846 215.75 50.3269 215.123 51.1865 214.15C51.8656 215.115 52.9829 215.75 54.2501 215.75C56.3182 215.75 58 214.068 58 212V211.062C58 205.693 53.873 201.273 48.625 200.798ZM16.75 189.5H44.875C44.9141 189.5 44.9467 189.52 44.9852 189.522L31.5834 200.523C31.1064 200.823 30.4152 200.761 30.1048 200.571L16.641 189.522C16.679 189.52 16.7114 189.5 16.75 189.5ZM46.75 200.798C41.502 201.273 37.375 205.693 37.375 211.063C37.375 211.379 37.3944 211.691 37.4224 212H16.75C15.7164 212 14.8751 211.159 14.8751 210.125V191.375C14.8751 191.11 14.9337 190.859 15.0337 190.63L28.998 202.081C29.5437 202.437 30.1708 202.625 30.8126 202.625C31.4297 202.625 32.033 202.451 32.564 202.122C32.6171 202.093 32.6675 202.059 32.7151 202.02L46.5913 190.63C46.6914 190.859 46.7501 191.11 46.7501 191.375V200.798H46.75ZM47.6875 213.875C46.1366 213.875 44.875 212.613 44.875 211.063C44.875 209.512 46.1366 208.25 47.6875 208.25C49.2384 208.25 50.5 209.512 50.5 211.063C50.5 212.613 49.2384 213.875 47.6875 213.875Z" fill="white"/>
<path d="M103.432 185.264C103.321 186.794 102.755 187.998 101.732 188.877C100.717 189.756 99.3757 190.195 97.709 190.195C95.8861 190.195 94.4505 189.583 93.4023 188.359C92.3607 187.129 91.8398 185.443 91.8398 183.301V182.432C91.8398 181.064 92.0807 179.86 92.5625 178.818C93.0443 177.777 93.7311 176.979 94.623 176.426C95.5215 175.866 96.5632 175.586 97.748 175.586C99.3887 175.586 100.71 176.025 101.713 176.904C102.715 177.783 103.295 179.017 103.451 180.605H100.521C100.45 179.688 100.193 179.023 99.75 178.613C99.3138 178.197 98.6465 177.988 97.748 177.988C96.7715 177.988 96.0391 178.34 95.5508 179.043C95.069 179.74 94.8216 180.824 94.8086 182.295V183.369C94.8086 184.906 95.0397 186.029 95.502 186.738C95.9707 187.448 96.7064 187.803 97.709 187.803C98.6139 187.803 99.2878 187.598 99.7305 187.188C100.18 186.771 100.437 186.13 100.502 185.264H103.432ZM104.73 184.619C104.73 183.571 104.932 182.637 105.336 181.816C105.74 180.996 106.319 180.361 107.074 179.912C107.836 179.463 108.718 179.238 109.721 179.238C111.146 179.238 112.309 179.674 113.207 180.547C114.112 181.419 114.617 182.604 114.721 184.102L114.74 184.824C114.74 186.445 114.288 187.747 113.383 188.73C112.478 189.707 111.264 190.195 109.74 190.195C108.217 190.195 106.999 189.707 106.088 188.73C105.183 187.754 104.73 186.426 104.73 184.746V184.619ZM107.553 184.824C107.553 185.827 107.742 186.595 108.119 187.129C108.497 187.656 109.037 187.92 109.74 187.92C110.424 187.92 110.958 187.66 111.342 187.139C111.726 186.611 111.918 185.771 111.918 184.619C111.918 183.636 111.726 182.874 111.342 182.334C110.958 181.794 110.417 181.523 109.721 181.523C109.031 181.523 108.497 181.794 108.119 182.334C107.742 182.868 107.553 183.698 107.553 184.824ZM122.416 182.08C122.032 182.028 121.693 182.002 121.4 182.002C120.333 182.002 119.633 182.363 119.301 183.086V190H116.479V179.434H119.145L119.223 180.693C119.789 179.723 120.574 179.238 121.576 179.238C121.889 179.238 122.182 179.281 122.455 179.365L122.416 182.08ZM129.721 182.08C129.337 182.028 128.998 182.002 128.705 182.002C127.637 182.002 126.938 182.363 126.605 183.086V190H123.783V179.434H126.449L126.527 180.693C127.094 179.723 127.878 179.238 128.881 179.238C129.193 179.238 129.486 179.281 129.76 179.365L129.721 182.08ZM135.756 190.195C134.206 190.195 132.943 189.72 131.967 188.77C130.997 187.819 130.512 186.553 130.512 184.971V184.697C130.512 183.636 130.717 182.689 131.127 181.855C131.537 181.016 132.117 180.371 132.865 179.922C133.62 179.466 134.48 179.238 135.443 179.238C136.889 179.238 138.025 179.694 138.852 180.605C139.685 181.517 140.102 182.809 140.102 184.482V185.635H133.373C133.464 186.325 133.738 186.878 134.193 187.295C134.656 187.712 135.238 187.92 135.941 187.92C137.029 187.92 137.878 187.526 138.49 186.738L139.877 188.291C139.454 188.89 138.881 189.359 138.158 189.697C137.436 190.029 136.635 190.195 135.756 190.195ZM135.434 181.523C134.874 181.523 134.418 181.712 134.066 182.09C133.721 182.467 133.5 183.008 133.402 183.711H137.328V183.486C137.315 182.861 137.146 182.38 136.82 182.041C136.495 181.696 136.033 181.523 135.434 181.523ZM141.273 184.619C141.273 183.571 141.475 182.637 141.879 181.816C142.283 180.996 142.862 180.361 143.617 179.912C144.379 179.463 145.261 179.238 146.264 179.238C147.689 179.238 148.852 179.674 149.75 180.547C150.655 181.419 151.16 182.604 151.264 184.102L151.283 184.824C151.283 186.445 150.831 187.747 149.926 188.73C149.021 189.707 147.807 190.195 146.283 190.195C144.76 190.195 143.542 189.707 142.631 188.73C141.726 187.754 141.273 186.426 141.273 184.746V184.619ZM144.096 184.824C144.096 185.827 144.285 186.595 144.662 187.129C145.04 187.656 145.58 187.92 146.283 187.92C146.967 187.92 147.501 187.66 147.885 187.139C148.269 186.611 148.461 185.771 148.461 184.619C148.461 183.636 148.269 182.874 147.885 182.334C147.501 181.794 146.96 181.523 146.264 181.523C145.574 181.523 145.04 181.794 144.662 182.334C144.285 182.868 144.096 183.698 144.096 184.824ZM166.742 183.838H161.117V187.646H167.719V190H158.188V175.781H167.699V178.154H161.117V181.543H166.742V183.838ZM172.23 190H169.398V175H172.23V190ZM179.428 190.195C177.878 190.195 176.615 189.72 175.639 188.77C174.669 187.819 174.184 186.553 174.184 184.971V184.697C174.184 183.636 174.389 182.689 174.799 181.855C175.209 181.016 175.788 180.371 176.537 179.922C177.292 179.466 178.152 179.238 179.115 179.238C180.561 179.238 181.697 179.694 182.523 180.605C183.357 181.517 183.773 182.809 183.773 184.482V185.635H177.045C177.136 186.325 177.41 186.878 177.865 187.295C178.327 187.712 178.91 187.92 179.613 187.92C180.701 187.92 181.55 187.526 182.162 186.738L183.549 188.291C183.126 188.89 182.553 189.359 181.83 189.697C181.107 190.029 180.307 190.195 179.428 190.195ZM179.105 181.523C178.546 181.523 178.09 181.712 177.738 182.09C177.393 182.467 177.172 183.008 177.074 183.711H181V183.486C180.987 182.861 180.818 182.38 180.492 182.041C180.167 181.696 179.704 181.523 179.105 181.523ZM189.779 187.92C190.3 187.92 190.723 187.777 191.049 187.49C191.374 187.204 191.544 186.823 191.557 186.348H194.203C194.197 187.064 194.001 187.721 193.617 188.32C193.233 188.913 192.706 189.375 192.035 189.707C191.371 190.033 190.635 190.195 189.828 190.195C188.318 190.195 187.126 189.717 186.254 188.76C185.382 187.796 184.945 186.468 184.945 184.775V184.59C184.945 182.962 185.378 181.663 186.244 180.693C187.11 179.723 188.298 179.238 189.809 179.238C191.13 179.238 192.188 179.616 192.982 180.371C193.783 181.12 194.19 182.119 194.203 183.369H191.557C191.544 182.822 191.374 182.38 191.049 182.041C190.723 181.696 190.294 181.523 189.76 181.523C189.102 181.523 188.604 181.764 188.266 182.246C187.934 182.721 187.768 183.496 187.768 184.57V184.863C187.768 185.951 187.934 186.732 188.266 187.207C188.598 187.682 189.102 187.92 189.779 187.92ZM199.193 176.836V179.434H201V181.504H199.193V186.777C199.193 187.168 199.268 187.448 199.418 187.617C199.568 187.786 199.854 187.871 200.277 187.871C200.59 187.871 200.867 187.848 201.107 187.803V189.941C200.554 190.111 199.984 190.195 199.398 190.195C197.419 190.195 196.41 189.196 196.371 187.197V181.504H194.828V179.434H196.371V176.836H199.193ZM208.51 182.08C208.126 182.028 207.787 182.002 207.494 182.002C206.426 182.002 205.727 182.363 205.395 183.086V190H202.572V179.434H205.238L205.316 180.693C205.883 179.723 206.667 179.238 207.67 179.238C207.982 179.238 208.275 179.281 208.549 179.365L208.51 182.08ZM209.086 184.619C209.086 183.571 209.288 182.637 209.691 181.816C210.095 180.996 210.674 180.361 211.43 179.912C212.191 179.463 213.074 179.238 214.076 179.238C215.502 179.238 216.664 179.674 217.562 180.547C218.467 181.419 218.972 182.604 219.076 184.102L219.096 184.824C219.096 186.445 218.643 187.747 217.738 188.73C216.833 189.707 215.619 190.195 214.096 190.195C212.572 190.195 211.355 189.707 210.443 188.73C209.538 187.754 209.086 186.426 209.086 184.746V184.619ZM211.908 184.824C211.908 185.827 212.097 186.595 212.475 187.129C212.852 187.656 213.393 187.92 214.096 187.92C214.779 187.92 215.313 187.66 215.697 187.139C216.081 186.611 216.273 185.771 216.273 184.619C216.273 183.636 216.081 182.874 215.697 182.334C215.313 181.794 214.773 181.523 214.076 181.523C213.386 181.523 212.852 181.794 212.475 182.334C212.097 182.868 211.908 183.698 211.908 184.824ZM214.633 175H217.709L215.004 178.027H212.709L214.633 175ZM223.432 179.434L223.52 180.654C224.275 179.71 225.287 179.238 226.557 179.238C227.676 179.238 228.51 179.567 229.057 180.225C229.604 180.882 229.883 181.865 229.896 183.174V190H227.074V183.242C227.074 182.643 226.944 182.21 226.684 181.943C226.423 181.67 225.99 181.533 225.385 181.533C224.59 181.533 223.995 181.872 223.598 182.549V190H220.775V179.434H223.432ZM235.023 190H232.191V179.434H235.023V190ZM232.025 176.699C232.025 176.276 232.165 175.928 232.445 175.654C232.732 175.381 233.119 175.244 233.607 175.244C234.089 175.244 234.473 175.381 234.76 175.654C235.046 175.928 235.189 176.276 235.189 176.699C235.189 177.129 235.043 177.48 234.75 177.754C234.464 178.027 234.083 178.164 233.607 178.164C233.132 178.164 232.748 178.027 232.455 177.754C232.169 177.48 232.025 177.129 232.025 176.699ZM241.752 187.92C242.273 187.92 242.696 187.777 243.021 187.49C243.347 187.204 243.516 186.823 243.529 186.348H246.176C246.169 187.064 245.974 187.721 245.59 188.32C245.206 188.913 244.678 189.375 244.008 189.707C243.344 190.033 242.608 190.195 241.801 190.195C240.29 190.195 239.099 189.717 238.227 188.76C237.354 187.796 236.918 186.468 236.918 184.775V184.59C236.918 182.962 237.351 181.663 238.217 180.693C239.083 179.723 240.271 179.238 241.781 179.238C243.103 179.238 244.161 179.616 244.955 180.371C245.756 181.12 246.163 182.119 246.176 183.369H243.529C243.516 182.822 243.347 182.38 243.021 182.041C242.696 181.696 242.266 181.523 241.732 181.523C241.075 181.523 240.577 181.764 240.238 182.246C239.906 182.721 239.74 183.496 239.74 184.57V184.863C239.74 185.951 239.906 186.732 240.238 187.207C240.57 187.682 241.075 187.92 241.752 187.92ZM247.348 184.619C247.348 183.571 247.549 182.637 247.953 181.816C248.357 180.996 248.936 180.361 249.691 179.912C250.453 179.463 251.335 179.238 252.338 179.238C253.764 179.238 254.926 179.674 255.824 180.547C256.729 181.419 257.234 182.604 257.338 184.102L257.357 184.824C257.357 186.445 256.905 187.747 256 188.73C255.095 189.707 253.881 190.195 252.357 190.195C250.834 190.195 249.617 189.707 248.705 188.73C247.8 187.754 247.348 186.426 247.348 184.746V184.619ZM250.17 184.824C250.17 185.827 250.359 186.595 250.736 187.129C251.114 187.656 251.654 187.92 252.357 187.92C253.041 187.92 253.575 187.66 253.959 187.139C254.343 186.611 254.535 185.771 254.535 184.619C254.535 183.636 254.343 182.874 253.959 182.334C253.575 181.794 253.035 181.523 252.338 181.523C251.648 181.523 251.114 181.794 250.736 182.334C250.359 182.868 250.17 183.698 250.17 184.824Z" fill="white"/>
<path d="M91.6348 204V196.891H93.8223C94.4473 196.891 95.0055 197.032 95.4971 197.315C95.9919 197.595 96.3776 197.996 96.6543 198.517C96.931 199.034 97.0693 199.623 97.0693 200.284V200.611C97.0693 201.272 96.9326 201.86 96.6592 202.374C96.389 202.888 96.0065 203.287 95.5117 203.57C95.0169 203.854 94.4587 203.997 93.8369 204H91.6348ZM93.0996 198.077V202.823H93.8076C94.3805 202.823 94.8184 202.636 95.1211 202.262C95.4238 201.887 95.5785 201.352 95.585 200.655V200.279C95.585 199.557 95.4352 199.01 95.1357 198.639C94.8363 198.264 94.3984 198.077 93.8223 198.077H93.0996ZM99.5352 204H98.1191V198.717H99.5352V204ZM98.0361 197.35C98.0361 197.138 98.1061 196.964 98.2461 196.827C98.3893 196.69 98.583 196.622 98.8271 196.622C99.068 196.622 99.2601 196.69 99.4033 196.827C99.5465 196.964 99.6182 197.138 99.6182 197.35C99.6182 197.564 99.5449 197.74 99.3984 197.877C99.2552 198.014 99.0648 198.082 98.8271 198.082C98.5895 198.082 98.3975 198.014 98.251 197.877C98.1077 197.74 98.0361 197.564 98.0361 197.35ZM103.671 200.04C103.479 200.014 103.31 200.001 103.163 200.001C102.629 200.001 102.279 200.182 102.113 200.543V204H100.702V198.717H102.035L102.074 199.347C102.357 198.862 102.75 198.619 103.251 198.619C103.407 198.619 103.554 198.64 103.69 198.683L103.671 200.04ZM106.688 204.098C105.914 204.098 105.282 203.86 104.794 203.385C104.309 202.91 104.066 202.276 104.066 201.485V201.349C104.066 200.818 104.169 200.344 104.374 199.928C104.579 199.508 104.869 199.186 105.243 198.961C105.621 198.733 106.05 198.619 106.532 198.619C107.255 198.619 107.823 198.847 108.236 199.303C108.653 199.758 108.861 200.405 108.861 201.241V201.817H105.497C105.543 202.162 105.679 202.439 105.907 202.647C106.138 202.856 106.43 202.96 106.781 202.96C107.325 202.96 107.75 202.763 108.056 202.369L108.749 203.146C108.537 203.445 108.251 203.679 107.89 203.849C107.528 204.015 107.128 204.098 106.688 204.098ZM106.527 199.762C106.247 199.762 106.02 199.856 105.844 200.045C105.671 200.234 105.561 200.504 105.512 200.855H107.475V200.743C107.468 200.431 107.383 200.19 107.221 200.021C107.058 199.848 106.827 199.762 106.527 199.762ZM111.864 202.96C112.125 202.96 112.336 202.888 112.499 202.745C112.662 202.602 112.746 202.411 112.753 202.174H114.076C114.073 202.532 113.975 202.861 113.783 203.16C113.591 203.456 113.327 203.688 112.992 203.854C112.66 204.016 112.292 204.098 111.889 204.098C111.133 204.098 110.538 203.858 110.102 203.38C109.665 202.898 109.447 202.234 109.447 201.388V201.295C109.447 200.481 109.664 199.832 110.097 199.347C110.53 198.862 111.124 198.619 111.879 198.619C112.54 198.619 113.069 198.808 113.466 199.186C113.866 199.56 114.07 200.06 114.076 200.685H112.753C112.746 200.411 112.662 200.19 112.499 200.021C112.336 199.848 112.121 199.762 111.854 199.762C111.526 199.762 111.277 199.882 111.107 200.123C110.941 200.361 110.858 200.748 110.858 201.285V201.432C110.858 201.975 110.941 202.366 111.107 202.604C111.273 202.841 111.526 202.96 111.864 202.96ZM117.079 202.96C117.34 202.96 117.551 202.888 117.714 202.745C117.877 202.602 117.961 202.411 117.968 202.174H119.291C119.288 202.532 119.19 202.861 118.998 203.16C118.806 203.456 118.542 203.688 118.207 203.854C117.875 204.016 117.507 204.098 117.104 204.098C116.348 204.098 115.753 203.858 115.316 203.38C114.88 202.898 114.662 202.234 114.662 201.388V201.295C114.662 200.481 114.879 199.832 115.312 199.347C115.744 198.862 116.339 198.619 117.094 198.619C117.755 198.619 118.284 198.808 118.681 199.186C119.081 199.56 119.285 200.06 119.291 200.685H117.968C117.961 200.411 117.877 200.19 117.714 200.021C117.551 199.848 117.336 199.762 117.069 199.762C116.741 199.762 116.492 199.882 116.322 200.123C116.156 200.361 116.073 200.748 116.073 201.285V201.432C116.073 201.975 116.156 202.366 116.322 202.604C116.488 202.841 116.741 202.96 117.079 202.96ZM121.586 204H120.17V198.717H121.586V204ZM120.087 197.35C120.087 197.138 120.157 196.964 120.297 196.827C120.44 196.69 120.634 196.622 120.878 196.622C121.119 196.622 121.311 196.69 121.454 196.827C121.597 196.964 121.669 197.138 121.669 197.35C121.669 197.564 121.596 197.74 121.449 197.877C121.306 198.014 121.116 198.082 120.878 198.082C120.64 198.082 120.448 198.014 120.302 197.877C120.159 197.74 120.087 197.564 120.087 197.35ZM122.533 201.31C122.533 200.785 122.634 200.318 122.836 199.908C123.038 199.498 123.327 199.181 123.705 198.956C124.086 198.731 124.527 198.619 125.028 198.619C125.741 198.619 126.322 198.837 126.771 199.273C127.224 199.71 127.476 200.302 127.528 201.051L127.538 201.412C127.538 202.223 127.312 202.874 126.859 203.365C126.407 203.854 125.8 204.098 125.038 204.098C124.276 204.098 123.668 203.854 123.212 203.365C122.759 202.877 122.533 202.213 122.533 201.373V201.31ZM123.944 201.412C123.944 201.913 124.039 202.298 124.228 202.564C124.416 202.828 124.687 202.96 125.038 202.96C125.38 202.96 125.647 202.83 125.839 202.569C126.031 202.306 126.127 201.886 126.127 201.31C126.127 200.818 126.031 200.437 125.839 200.167C125.647 199.897 125.377 199.762 125.028 199.762C124.683 199.762 124.416 199.897 124.228 200.167C124.039 200.434 123.944 200.849 123.944 201.412ZM125.307 196.5H126.845L125.492 198.014H124.345L125.307 196.5ZM129.706 198.717L129.75 199.327C130.128 198.855 130.634 198.619 131.269 198.619C131.828 198.619 132.245 198.784 132.519 199.112C132.792 199.441 132.932 199.933 132.938 200.587V204H131.527V200.621C131.527 200.322 131.462 200.105 131.332 199.972C131.202 199.835 130.985 199.767 130.683 199.767C130.285 199.767 129.988 199.936 129.789 200.274V204H128.378V198.717H129.706ZM136.283 201.319C136.283 200.496 136.467 199.84 136.835 199.352C137.206 198.863 137.712 198.619 138.354 198.619C138.868 198.619 139.293 198.811 139.628 199.195V196.5H141.044V204H139.77L139.701 203.438C139.35 203.878 138.897 204.098 138.344 204.098C137.722 204.098 137.222 203.854 136.845 203.365C136.47 202.874 136.283 202.192 136.283 201.319ZM137.694 201.422C137.694 201.917 137.781 202.296 137.953 202.56C138.126 202.823 138.376 202.955 138.705 202.955C139.141 202.955 139.449 202.771 139.628 202.403V200.318C139.452 199.951 139.148 199.767 138.715 199.767C138.035 199.767 137.694 200.318 137.694 201.422ZM144.569 204.098C143.795 204.098 143.163 203.86 142.675 203.385C142.19 202.91 141.947 202.276 141.947 201.485V201.349C141.947 200.818 142.05 200.344 142.255 199.928C142.46 199.508 142.75 199.186 143.124 198.961C143.502 198.733 143.931 198.619 144.413 198.619C145.136 198.619 145.704 198.847 146.117 199.303C146.534 199.758 146.742 200.405 146.742 201.241V201.817H143.378C143.424 202.162 143.56 202.439 143.788 202.647C144.019 202.856 144.311 202.96 144.662 202.96C145.206 202.96 145.631 202.763 145.937 202.369L146.63 203.146C146.418 203.445 146.132 203.679 145.771 203.849C145.409 204.015 145.009 204.098 144.569 204.098ZM144.408 199.762C144.128 199.762 143.9 199.856 143.725 200.045C143.552 200.234 143.441 200.504 143.393 200.855H145.355V200.743C145.349 200.431 145.264 200.19 145.102 200.021C144.939 199.848 144.708 199.762 144.408 199.762ZM152.235 202.96C152.496 202.96 152.707 202.888 152.87 202.745C153.033 202.602 153.118 202.411 153.124 202.174H154.447C154.444 202.532 154.346 202.861 154.154 203.16C153.962 203.456 153.699 203.688 153.363 203.854C153.031 204.016 152.663 204.098 152.26 204.098C151.505 204.098 150.909 203.858 150.473 203.38C150.036 202.898 149.818 202.234 149.818 201.388V201.295C149.818 200.481 150.035 199.832 150.468 199.347C150.901 198.862 151.495 198.619 152.25 198.619C152.911 198.619 153.44 198.808 153.837 199.186C154.237 199.56 154.441 200.06 154.447 200.685H153.124C153.118 200.411 153.033 200.19 152.87 200.021C152.707 199.848 152.493 199.762 152.226 199.762C151.897 199.762 151.648 199.882 151.479 200.123C151.312 200.361 151.229 200.748 151.229 201.285V201.432C151.229 201.975 151.312 202.366 151.479 202.604C151.645 202.841 151.897 202.96 152.235 202.96ZM155.033 201.31C155.033 200.785 155.134 200.318 155.336 199.908C155.538 199.498 155.827 199.181 156.205 198.956C156.586 198.731 157.027 198.619 157.528 198.619C158.241 198.619 158.822 198.837 159.271 199.273C159.724 199.71 159.976 200.302 160.028 201.051L160.038 201.412C160.038 202.223 159.812 202.874 159.359 203.365C158.907 203.854 158.3 204.098 157.538 204.098C156.776 204.098 156.168 203.854 155.712 203.365C155.259 202.877 155.033 202.213 155.033 201.373V201.31ZM156.444 201.412C156.444 201.913 156.539 202.298 156.728 202.564C156.916 202.828 157.187 202.96 157.538 202.96C157.88 202.96 158.147 202.83 158.339 202.569C158.531 202.306 158.627 201.886 158.627 201.31C158.627 200.818 158.531 200.437 158.339 200.167C158.147 199.897 157.877 199.762 157.528 199.762C157.183 199.762 156.916 199.897 156.728 200.167C156.539 200.434 156.444 200.849 156.444 201.412ZM163.876 200.04C163.684 200.014 163.515 200.001 163.368 200.001C162.834 200.001 162.484 200.182 162.318 200.543V204H160.907V198.717H162.24L162.279 199.347C162.562 198.862 162.955 198.619 163.456 198.619C163.612 198.619 163.759 198.64 163.896 198.683L163.876 200.04ZM167.528 200.04C167.336 200.014 167.167 200.001 167.021 200.001C166.487 200.001 166.137 200.182 165.971 200.543V204H164.56V198.717H165.893L165.932 199.347C166.215 198.862 166.607 198.619 167.108 198.619C167.265 198.619 167.411 198.64 167.548 198.683L167.528 200.04ZM170.546 204.098C169.771 204.098 169.14 203.86 168.651 203.385C168.166 202.91 167.924 202.276 167.924 201.485V201.349C167.924 200.818 168.026 200.344 168.231 199.928C168.437 199.508 168.726 199.186 169.101 198.961C169.478 198.733 169.908 198.619 170.39 198.619C171.112 198.619 171.68 198.847 172.094 199.303C172.51 199.758 172.719 200.405 172.719 201.241V201.817H169.354C169.4 202.162 169.537 202.439 169.765 202.647C169.996 202.856 170.287 202.96 170.639 202.96C171.182 202.96 171.607 202.763 171.913 202.369L172.606 203.146C172.395 203.445 172.108 203.679 171.747 203.849C171.386 204.015 170.985 204.098 170.546 204.098ZM170.385 199.762C170.105 199.762 169.877 199.856 169.701 200.045C169.529 200.234 169.418 200.504 169.369 200.855H171.332V200.743C171.326 200.431 171.241 200.19 171.078 200.021C170.915 199.848 170.684 199.762 170.385 199.762ZM173.305 201.31C173.305 200.785 173.406 200.318 173.607 199.908C173.809 199.498 174.099 199.181 174.477 198.956C174.857 198.731 175.299 198.619 175.8 198.619C176.513 198.619 177.094 198.837 177.543 199.273C177.995 199.71 178.248 200.302 178.3 201.051L178.31 201.412C178.31 202.223 178.083 202.874 177.631 203.365C177.178 203.854 176.571 204.098 175.81 204.098C175.048 204.098 174.439 203.854 173.983 203.365C173.531 202.877 173.305 202.213 173.305 201.373V201.31ZM174.716 201.412C174.716 201.913 174.81 202.298 174.999 202.564C175.188 202.828 175.458 202.96 175.81 202.96C176.151 202.96 176.418 202.83 176.61 202.569C176.802 202.306 176.898 201.886 176.898 201.31C176.898 200.818 176.802 200.437 176.61 200.167C176.418 199.897 176.148 199.762 175.8 199.762C175.455 199.762 175.188 199.897 174.999 200.167C174.81 200.434 174.716 200.849 174.716 201.412Z" fill="#8A8787"/>
<rect y="86" width="66" height="66" rx="33" fill="#786960"/>
<rect x="4" y="90" width="58" height="57" rx="28.5" fill="#8A8787"/>
<path d="M45.5634 123.876C44.6422 122.917 43.5309 122.404 42.3532 122.404C41.185 122.404 40.0643 122.907 39.1051 123.866L36.1039 126.858C35.8569 126.725 35.61 126.602 35.3725 126.478C35.0306 126.307 34.7077 126.146 34.4323 125.975C31.621 124.189 29.0662 121.862 26.6158 118.852C25.4286 117.351 24.6308 116.088 24.0515 114.806C24.8303 114.093 25.5521 113.353 26.2549 112.64C26.5208 112.374 26.7868 112.099 27.0527 111.833C29.0472 109.839 29.0472 107.255 27.0527 105.261L24.4598 102.668C24.1654 102.373 23.8615 102.07 23.5766 101.766C23.0067 101.177 22.4084 100.569 21.791 99.999C20.8698 99.0873 19.7681 98.6029 18.6094 98.6029C17.4507 98.6029 16.3299 99.0873 15.3802 99.999C15.3707 100.009 15.3707 100.009 15.3612 100.018L12.132 103.276C10.9163 104.491 10.223 105.973 10.071 107.692C9.84311 110.465 10.6599 113.049 11.2867 114.739C12.8253 118.89 15.1237 122.736 18.5524 126.858C22.7123 131.825 27.7175 135.748 33.435 138.512C35.6195 139.547 38.5352 140.772 41.7929 140.981C41.9923 140.991 42.2013 141 42.3912 141C44.5852 141 46.4277 140.212 47.8713 138.645C47.8808 138.626 47.8998 138.616 47.9093 138.597C48.4032 137.999 48.973 137.457 49.5714 136.878C49.9798 136.489 50.3977 136.08 50.8061 135.653C51.7463 134.675 52.2402 133.535 52.2402 132.367C52.2402 131.189 51.7368 130.059 50.7776 129.109L45.5634 123.876ZM48.9636 133.877C48.9541 133.877 48.9541 133.886 48.9636 133.877C48.5931 134.276 48.2132 134.637 47.8048 135.036C47.1875 135.624 46.5607 136.242 45.9718 136.935C45.0126 137.961 43.8824 138.445 42.4007 138.445C42.2583 138.445 42.1063 138.445 41.9639 138.436C39.1431 138.255 36.5217 137.153 34.5558 136.213C29.1801 133.611 24.4598 129.916 20.5374 125.234C17.2987 121.331 15.1332 117.721 13.6991 113.846C12.8158 111.482 12.4929 109.639 12.6354 107.901C12.7304 106.79 13.1578 105.869 13.9461 105.08L17.1847 101.842C17.6501 101.405 18.144 101.167 18.6283 101.167C19.2267 101.167 19.7111 101.528 20.015 101.832C20.0245 101.842 20.034 101.851 20.0435 101.861C20.6228 102.402 21.1737 102.962 21.753 103.561C22.0475 103.865 22.3514 104.168 22.6553 104.482L25.2481 107.075C26.2549 108.081 26.2549 109.012 25.2481 110.019C24.9727 110.294 24.7068 110.57 24.4314 110.836C23.6336 111.653 22.8738 112.412 22.0475 113.153C22.0285 113.172 22.0095 113.182 22 113.201C21.1832 114.017 21.3352 114.815 21.5061 115.357C21.5156 115.385 21.5251 115.414 21.5346 115.442C22.2089 117.076 23.1587 118.614 24.6023 120.447L24.6118 120.457C27.2331 123.686 29.9969 126.203 33.0456 128.131C33.435 128.378 33.8339 128.577 34.2138 128.767C34.5558 128.938 34.8787 129.1 35.1541 129.271C35.1921 129.29 35.2301 129.318 35.2681 129.337C35.591 129.498 35.8949 129.574 36.2083 129.574C36.9966 129.574 37.4905 129.081 37.652 128.919L40.9001 125.671C41.223 125.348 41.7359 124.959 42.3343 124.959C42.9231 124.959 43.4075 125.329 43.7019 125.652C43.7114 125.661 43.7114 125.661 43.7209 125.671L48.9541 130.904C49.9323 131.873 49.9323 132.87 48.9636 133.877Z" fill="white"/>
<path d="M34.3191 106.704C36.8074 107.122 39.0678 108.3 40.8724 110.104C42.6769 111.909 43.8451 114.169 44.2725 116.658C44.377 117.285 44.9183 117.721 45.5357 117.721C45.6117 117.721 45.6781 117.712 45.7541 117.702C46.4569 117.589 46.9223 116.924 46.8084 116.221C46.2955 113.21 44.8709 110.465 42.6959 108.29C40.521 106.115 37.7762 104.691 34.7654 104.178C34.0626 104.064 33.4073 104.529 33.2838 105.223C33.1604 105.916 33.6162 106.59 34.3191 106.704Z" fill="white"/>
<path d="M54.9477 115.85C54.1024 110.893 51.766 106.381 48.176 102.791C44.5859 99.2013 40.0746 96.8649 35.1168 96.0196C34.4235 95.8961 33.7682 96.371 33.6447 97.0643C33.5307 97.7671 33.9961 98.4225 34.6989 98.5459C39.1248 99.2962 43.1613 101.395 46.3714 104.596C49.5816 107.806 51.6711 111.843 52.4214 116.268C52.5259 116.895 53.0672 117.332 53.6846 117.332C53.7605 117.332 53.827 117.323 53.903 117.313C54.5963 117.209 55.0712 116.544 54.9477 115.85Z" fill="white"/>
<path d="M102.973 92.1543H98.6172V104H95.6875V92.1543H91.3906V89.7812H102.973V92.1543ZM108.451 104.195C106.902 104.195 105.639 103.72 104.662 102.77C103.692 101.819 103.207 100.553 103.207 98.9707V98.6973C103.207 97.6361 103.412 96.6888 103.822 95.8555C104.232 95.0156 104.812 94.3711 105.561 93.9219C106.316 93.4661 107.175 93.2383 108.139 93.2383C109.584 93.2383 110.72 93.694 111.547 94.6055C112.38 95.5169 112.797 96.8092 112.797 98.4824V99.6348H106.068C106.16 100.325 106.433 100.878 106.889 101.295C107.351 101.712 107.934 101.92 108.637 101.92C109.724 101.92 110.574 101.526 111.186 100.738L112.572 102.291C112.149 102.89 111.576 103.359 110.854 103.697C110.131 104.029 109.33 104.195 108.451 104.195ZM108.129 95.5234C107.569 95.5234 107.113 95.7122 106.762 96.0898C106.417 96.4674 106.195 97.0078 106.098 97.7109H110.023V97.4863C110.01 96.8613 109.841 96.3796 109.516 96.041C109.19 95.696 108.728 95.5234 108.129 95.5234ZM117.387 104H114.555V89H117.387V104ZM124.584 104.195C123.035 104.195 121.771 103.72 120.795 102.77C119.825 101.819 119.34 100.553 119.34 98.9707V98.6973C119.34 97.6361 119.545 96.6888 119.955 95.8555C120.365 95.0156 120.945 94.3711 121.693 93.9219C122.449 93.4661 123.308 93.2383 124.271 93.2383C125.717 93.2383 126.853 93.694 127.68 94.6055C128.513 95.5169 128.93 96.8092 128.93 98.4824V99.6348H122.201C122.292 100.325 122.566 100.878 123.021 101.295C123.484 101.712 124.066 101.92 124.77 101.92C125.857 101.92 126.706 101.526 127.318 100.738L128.705 102.291C128.282 102.89 127.709 103.359 126.986 103.697C126.264 104.029 125.463 104.195 124.584 104.195ZM124.262 95.5234C123.702 95.5234 123.246 95.7122 122.895 96.0898C122.549 96.4674 122.328 97.0078 122.23 97.7109H126.156V97.4863C126.143 96.8613 125.974 96.3796 125.648 96.041C125.323 95.696 124.861 95.5234 124.262 95.5234ZM124.516 89H127.592L124.887 92.0273H122.592L124.516 89ZM131.312 104V95.5039H129.74V93.4336H131.312V92.5352C131.312 91.3503 131.651 90.4323 132.328 89.7812C133.012 89.1237 133.965 88.7949 135.189 88.7949C135.58 88.7949 136.059 88.86 136.625 88.9902L136.596 91.1777C136.361 91.1191 136.075 91.0898 135.736 91.0898C134.675 91.0898 134.145 91.5879 134.145 92.584V93.4336H136.244V95.5039H134.145V104H131.312ZM137.27 98.6191C137.27 97.571 137.471 96.6367 137.875 95.8164C138.279 94.9961 138.858 94.3613 139.613 93.9121C140.375 93.4629 141.257 93.2383 142.26 93.2383C143.686 93.2383 144.848 93.6745 145.746 94.5469C146.651 95.4193 147.156 96.6042 147.26 98.1016L147.279 98.8242C147.279 100.445 146.827 101.747 145.922 102.73C145.017 103.707 143.803 104.195 142.279 104.195C140.756 104.195 139.538 103.707 138.627 102.73C137.722 101.754 137.27 100.426 137.27 98.7461V98.6191ZM140.092 98.8242C140.092 99.8268 140.281 100.595 140.658 101.129C141.036 101.656 141.576 101.92 142.279 101.92C142.963 101.92 143.497 101.66 143.881 101.139C144.265 100.611 144.457 99.7715 144.457 98.6191C144.457 97.6361 144.265 96.8743 143.881 96.334C143.497 95.7936 142.956 95.5234 142.26 95.5234C141.57 95.5234 141.036 95.7936 140.658 96.334C140.281 96.8678 140.092 97.6979 140.092 98.8242ZM151.615 93.4336L151.703 94.6543C152.458 93.7103 153.471 93.2383 154.74 93.2383C155.86 93.2383 156.693 93.5671 157.24 94.2246C157.787 94.8822 158.067 95.8652 158.08 97.1738V104H155.258V97.2422C155.258 96.6432 155.128 96.2103 154.867 95.9434C154.607 95.6699 154.174 95.5332 153.568 95.5332C152.774 95.5332 152.178 95.8717 151.781 96.5488V104H148.959V93.4336H151.615ZM159.789 98.6191C159.789 97.571 159.991 96.6367 160.395 95.8164C160.798 94.9961 161.378 94.3613 162.133 93.9121C162.895 93.4629 163.777 93.2383 164.779 93.2383C166.205 93.2383 167.367 93.6745 168.266 94.5469C169.171 95.4193 169.675 96.6042 169.779 98.1016L169.799 98.8242C169.799 100.445 169.346 101.747 168.441 102.73C167.536 103.707 166.322 104.195 164.799 104.195C163.275 104.195 162.058 103.707 161.146 102.73C160.242 101.754 159.789 100.426 159.789 98.7461V98.6191ZM162.611 98.8242C162.611 99.8268 162.8 100.595 163.178 101.129C163.555 101.656 164.096 101.92 164.799 101.92C165.482 101.92 166.016 101.66 166.4 101.139C166.785 100.611 166.977 99.7715 166.977 98.6191C166.977 97.6361 166.785 96.8743 166.4 96.334C166.016 95.7936 165.476 95.5234 164.779 95.5234C164.089 95.5234 163.555 95.7936 163.178 96.334C162.8 96.8678 162.611 97.6979 162.611 98.8242Z" fill="white"/>
<path d="M97.416 118H95.9512L93.0996 113.322V118H91.6348V110.891H93.0996L95.9561 115.578V110.891H97.416V118ZM101.767 117.463C101.418 117.886 100.937 118.098 100.321 118.098C99.7549 118.098 99.3219 117.935 99.0225 117.609C98.7262 117.284 98.5749 116.807 98.5684 116.179V112.717H99.9795V116.13C99.9795 116.68 100.23 116.955 100.731 116.955C101.21 116.955 101.539 116.789 101.718 116.457V112.717H103.134V118H101.806L101.767 117.463ZM101.137 110.5H102.675L101.322 112.014H100.175L101.137 110.5ZM105.521 112.717L105.565 113.308C105.94 112.849 106.446 112.619 107.084 112.619C107.764 112.619 108.231 112.888 108.485 113.425C108.856 112.888 109.385 112.619 110.072 112.619C110.645 112.619 111.072 112.787 111.352 113.122C111.632 113.454 111.771 113.955 111.771 114.626V118H110.355V114.631C110.355 114.331 110.297 114.113 110.18 113.977C110.062 113.837 109.856 113.767 109.56 113.767C109.136 113.767 108.843 113.968 108.681 114.372L108.686 118H107.274V114.636C107.274 114.33 107.214 114.108 107.094 113.972C106.973 113.835 106.768 113.767 106.479 113.767C106.078 113.767 105.788 113.933 105.609 114.265V118H104.198V112.717H105.521ZM115.292 118.098C114.517 118.098 113.886 117.86 113.397 117.385C112.912 116.91 112.67 116.276 112.67 115.485V115.349C112.67 114.818 112.772 114.344 112.978 113.928C113.183 113.508 113.472 113.186 113.847 112.961C114.224 112.733 114.654 112.619 115.136 112.619C115.858 112.619 116.426 112.847 116.84 113.303C117.257 113.758 117.465 114.405 117.465 115.241V115.817H114.101C114.146 116.162 114.283 116.439 114.511 116.647C114.742 116.856 115.033 116.96 115.385 116.96C115.928 116.96 116.353 116.763 116.659 116.369L117.353 117.146C117.141 117.445 116.854 117.679 116.493 117.849C116.132 118.015 115.731 118.098 115.292 118.098ZM115.131 113.762C114.851 113.762 114.623 113.856 114.447 114.045C114.275 114.234 114.164 114.504 114.115 114.855H116.078V114.743C116.072 114.431 115.987 114.19 115.824 114.021C115.661 113.848 115.43 113.762 115.131 113.762ZM121.239 114.04C121.047 114.014 120.878 114.001 120.731 114.001C120.198 114.001 119.848 114.182 119.682 114.543V118H118.271V112.717H119.604L119.643 113.347C119.926 112.862 120.318 112.619 120.819 112.619C120.976 112.619 121.122 112.64 121.259 112.683L121.239 114.04ZM121.527 115.31C121.527 114.785 121.628 114.318 121.83 113.908C122.032 113.498 122.322 113.181 122.699 112.956C123.08 112.731 123.521 112.619 124.022 112.619C124.735 112.619 125.316 112.837 125.766 113.273C126.218 113.71 126.47 114.302 126.522 115.051L126.532 115.412C126.532 116.223 126.306 116.874 125.854 117.365C125.401 117.854 124.794 118.098 124.032 118.098C123.271 118.098 122.662 117.854 122.206 117.365C121.754 116.877 121.527 116.213 121.527 115.373V115.31ZM122.938 115.412C122.938 115.913 123.033 116.298 123.222 116.564C123.41 116.828 123.681 116.96 124.032 116.96C124.374 116.96 124.641 116.83 124.833 116.569C125.025 116.306 125.121 115.886 125.121 115.31C125.121 114.818 125.025 114.437 124.833 114.167C124.641 113.897 124.371 113.762 124.022 113.762C123.677 113.762 123.41 113.897 123.222 114.167C123.033 114.434 122.938 114.849 122.938 115.412ZM129.672 115.319C129.672 114.496 129.856 113.84 130.224 113.352C130.595 112.863 131.101 112.619 131.742 112.619C132.257 112.619 132.681 112.811 133.017 113.195V110.5H134.433V118H133.158L133.09 117.438C132.738 117.878 132.286 118.098 131.732 118.098C131.111 118.098 130.611 117.854 130.233 117.365C129.859 116.874 129.672 116.192 129.672 115.319ZM131.083 115.422C131.083 115.917 131.169 116.296 131.342 116.56C131.514 116.823 131.765 116.955 132.094 116.955C132.53 116.955 132.838 116.771 133.017 116.403V114.318C132.841 113.951 132.536 113.767 132.104 113.767C131.423 113.767 131.083 114.318 131.083 115.422ZM137.958 118.098C137.183 118.098 136.552 117.86 136.063 117.385C135.578 116.91 135.336 116.276 135.336 115.485V115.349C135.336 114.818 135.438 114.344 135.644 113.928C135.849 113.508 136.138 113.186 136.513 112.961C136.89 112.733 137.32 112.619 137.802 112.619C138.524 112.619 139.092 112.847 139.506 113.303C139.923 113.758 140.131 114.405 140.131 115.241V115.817H136.767C136.812 116.162 136.949 116.439 137.177 116.647C137.408 116.856 137.699 116.96 138.051 116.96C138.594 116.96 139.019 116.763 139.325 116.369L140.019 117.146C139.807 117.445 139.521 117.679 139.159 117.849C138.798 118.015 138.397 118.098 137.958 118.098ZM137.797 113.762C137.517 113.762 137.289 113.856 137.113 114.045C136.941 114.234 136.83 114.504 136.781 114.855H138.744V114.743C138.738 114.431 138.653 114.19 138.49 114.021C138.327 113.848 138.096 113.762 137.797 113.762ZM145.116 111.418V112.717H146.02V113.752H145.116V116.389C145.116 116.584 145.154 116.724 145.229 116.809C145.303 116.893 145.447 116.936 145.658 116.936C145.814 116.936 145.953 116.924 146.073 116.901V117.971C145.797 118.055 145.512 118.098 145.219 118.098C144.229 118.098 143.725 117.598 143.705 116.599V113.752H142.934V112.717H143.705V111.418H145.116ZM149.237 118.098C148.463 118.098 147.831 117.86 147.343 117.385C146.858 116.91 146.615 116.276 146.615 115.485V115.349C146.615 114.818 146.718 114.344 146.923 113.928C147.128 113.508 147.418 113.186 147.792 112.961C148.17 112.733 148.599 112.619 149.081 112.619C149.804 112.619 150.372 112.847 150.785 113.303C151.202 113.758 151.41 114.405 151.41 115.241V115.817H148.046C148.091 116.162 148.228 116.439 148.456 116.647C148.687 116.856 148.979 116.96 149.33 116.96C149.874 116.96 150.299 116.763 150.604 116.369L151.298 117.146C151.086 117.445 150.8 117.679 150.438 117.849C150.077 118.015 149.677 118.098 149.237 118.098ZM149.076 113.762C148.796 113.762 148.568 113.856 148.393 114.045C148.22 114.234 148.109 114.504 148.061 114.855H150.023V114.743C150.017 114.431 149.932 114.19 149.77 114.021C149.607 113.848 149.376 113.762 149.076 113.762ZM153.705 118H152.289V110.5H153.705V118Z" fill="#8A8787"/>
</svg>
