<svg width="226" height="211" viewBox="0 0 226 211" fill="none" xmlns="http://www.w3.org/2000/svg">
<g clip-path="url(#clip0)">
<path d="M151.13 111.827C140.96 97.015 123.64 88.1707 104.798 88.1707C85.9567 88.1707 68.6349 97.015 58.4671 111.827L33.9621 147.518C29.8964 153.44 28.0204 160.28 28.5359 167.297C29.0515 174.316 31.912 180.852 36.8071 186.201C41.7057 191.549 48.1785 195.203 55.5255 196.771C62.8725 198.338 70.404 197.669 77.3044 194.838L77.7545 194.651C95.1193 187.663 114.967 187.726 132.289 194.838C136.756 196.671 141.489 197.599 146.266 197.599C148.862 197.599 151.474 197.323 154.063 196.773C161.41 195.206 167.882 191.552 172.783 186.204C177.68 180.857 180.542 174.319 181.059 167.301C181.576 160.28 179.7 153.44 175.635 147.516L151.13 111.827ZM162.715 178.165C156.482 184.968 146.398 187.119 137.622 183.516C127.19 179.232 115.993 177.091 104.792 177.091C93.602 177.091 82.4065 179.231 71.9817 183.51L71.6851 183.632C62.976 187.071 53.0409 184.892 46.8767 178.165C40.6505 171.36 39.9418 161.727 45.1145 154.192L69.6212 118.501C77.3424 107.255 90.4915 100.54 104.798 100.54C119.104 100.54 132.254 107.255 139.977 118.501L164.48 154.19C169.655 161.729 168.945 171.364 162.715 178.165Z" fill="#222222"/>
<path d="M40.563 111.78C47.8531 109.165 53.3914 103.681 56.1588 96.3351C58.79 89.3453 58.5745 81.4541 55.5484 74.1134C52.5206 66.7775 47.0134 60.789 40.0423 57.249C32.716 53.532 24.6689 52.9267 17.3909 55.5459C2.74863 60.8019 -3.97075 77.6952 2.41412 93.2121C7.51444 105.562 19.41 113.359 31.4366 113.359C34.5075 113.359 37.587 112.85 40.563 111.78ZM14.7769 88.769C11.0147 79.6253 14.32 69.8989 22.1498 67.0882C23.5637 66.5795 25.0586 66.3267 26.5846 66.3267C28.9399 66.3267 31.3728 66.9272 33.7143 68.1168C37.9249 70.253 41.2889 73.962 43.1856 78.558C45.0805 83.1572 45.2495 88.0124 43.6597 92.2317C42.2028 96.0985 39.4147 98.9414 35.811 100.234L35.8041 100.237C27.9847 103.051 18.5513 97.9047 14.7769 88.769Z" fill="#222222"/>
<path d="M88.1116 83.8176C106.416 83.8176 121.308 67.9771 121.308 48.5066C121.308 29.0312 106.416 13.1875 88.1116 13.1875C69.8088 13.1875 54.9182 29.0312 54.9182 48.5066C54.9182 67.9771 69.8088 83.8176 88.1116 83.8176ZM88.1116 25.5556C99.1106 25.5556 108.061 35.8519 108.061 48.5066C108.061 61.1564 99.1106 71.4495 88.1116 71.4495C77.1127 71.4495 68.1656 61.1564 68.1656 48.5066C68.1656 35.8519 77.1127 25.5556 88.1116 25.5556Z" fill="#222222"/>
<path d="M145.441 92.493H145.442C148.258 93.3655 151.131 93.7825 153.991 93.7825C167.34 93.7825 180.35 84.7112 185.314 70.7703C188.172 62.7455 187.984 54.2602 184.784 46.8793C181.436 39.1538 175.23 33.5453 167.309 31.0855C159.388 28.6289 150.817 29.6528 143.18 33.9703C135.885 38.0962 130.295 44.7865 127.441 52.8114C121.415 69.7401 129.49 87.5413 145.441 92.493ZM140.013 56.7119C141.876 51.472 145.439 47.1545 150.044 44.5499C154.305 42.14 158.953 41.5267 163.131 42.8226C167.307 44.1201 170.635 47.2077 172.504 51.5187C174.523 56.1775 174.61 61.6283 172.742 66.8682C169.02 77.3255 158.646 83.5554 149.62 80.7559C140.601 77.9549 136.29 67.1692 140.013 56.7119Z" fill="#222222"/>
<path d="M215.35 88.3716L215.345 88.3668C202.722 79.661 183.843 83.4343 173.258 96.7828C162.683 110.138 164.337 128.092 176.941 136.804C181.538 139.983 186.969 141.503 192.528 141.503C202.217 141.503 212.297 136.886 219.033 128.396C229.608 115.041 227.956 97.0871 215.35 88.3716ZM208.386 121.038C202.136 128.914 191.568 131.527 184.824 126.864C178.086 122.206 177.676 112.01 183.909 104.138C188.052 98.9126 194.104 96.0053 199.682 96.0053C202.503 96.0053 205.203 96.749 207.472 98.3153C214.205 102.977 214.614 113.171 208.386 121.038Z" fill="#222222"/>
</g>
<defs>
<clipPath id="clip0">
<rect width="226" height="211" fill="white"/>
</clipPath>
</defs>
</svg>
