<svg width="271" height="81" viewBox="0 0 271 81" fill="none" xmlns="http://www.w3.org/2000/svg">
<path d="M40.7373 75.0533C59.0512 75.0533 73.8975 59.7242 73.8975 40.8148C73.8975 21.9053 59.0512 6.57617 40.7373 6.57617C22.4235 6.57617 7.57715 21.9053 7.57715 40.8148C7.57715 59.7242 22.4235 75.0533 40.7373 75.0533Z" fill="#FF0000"/>
<path d="M40.5 74.7384C58.8139 74.7384 73.6602 59.4093 73.6602 40.4998C73.6602 21.5904 58.8139 6.26123 40.5 6.26123C22.1861 6.26123 7.33978 21.5904 7.33978 40.4998C7.33978 59.4093 22.1861 74.7384 40.5 74.7384Z" fill="url(#paint0_linear)"/>
<path d="M55.2516 32.2183L26.3438 49.7395L49.91 73.3057C55.3292 71.643 60.2467 68.5773 64.1954 64.3999C68.1442 60.2225 70.9929 55.0721 72.4712 49.4379L55.2516 32.2183Z" fill="url(#paint1_linear)"/>
<path d="M52.5543 31.1255H28.9204C26.798 31.1255 25.0775 32.846 25.0775 34.9684V46.8814C25.0775 49.0038 26.798 50.7243 28.9204 50.7243H52.5543C54.6766 50.7243 56.3972 49.0038 56.3972 46.8814V34.9684C56.3972 32.846 54.6766 31.1255 52.5543 31.1255Z" fill="white"/>
<path d="M35.7538 46.3634L35.7926 35.4912L46.8009 40.956L35.7538 46.3634Z" fill="#FF0000"/>
<path d="M40.5 78C61.2107 78 78 61.2107 78 40.5C78 19.7893 61.2107 3 40.5 3C19.7893 3 3 19.7893 3 40.5C3 61.2107 19.7893 78 40.5 78Z" stroke="#BD0F15" stroke-opacity="0.555556" stroke-width="5.65073" stroke-linecap="round" stroke-linejoin="round" stroke-dasharray="5.65 33.9"/>
<path d="M230.737 75.0533C249.051 75.0533 263.898 59.7242 263.898 40.8147C263.898 21.9053 249.051 6.57617 230.737 6.57617C212.423 6.57617 197.577 21.9053 197.577 40.8147C197.577 59.7242 212.423 75.0533 230.737 75.0533Z" fill="#FF00FF"/>
<path d="M230.5 78C251.211 78 268 61.2107 268 40.5C268 19.7893 251.211 3 230.5 3C209.789 3 193 19.7893 193 40.5C193 61.2107 209.789 78 230.5 78Z" stroke="#DC6DE4" stroke-width="5.49057" stroke-linecap="round" stroke-linejoin="round" stroke-dasharray="5.49 32.94"/>
<path d="M230.737 75.0533C249.051 75.0533 263.898 59.7242 263.898 40.8147C263.898 21.9053 249.051 6.57617 230.737 6.57617C212.423 6.57617 197.577 21.9053 197.577 40.8147C197.577 59.7242 212.423 75.0533 230.737 75.0533Z" fill="url(#paint2_linear)"/>
<path d="M230.737 75.0533C249.051 75.0533 263.898 59.7242 263.898 40.8147C263.898 21.9053 249.051 6.57617 230.737 6.57617C212.423 6.57617 197.577 21.9053 197.577 40.8147C197.577 59.7242 212.423 75.0533 230.737 75.0533Z" fill="url(#paint3_linear)"/>
<path d="M245.35 26.9111L246.233 31.1137L246.768 41.8608L247.013 50.7176L245.334 56.0355L239.695 57.526L229.255 58.0153L216.232 56.5916L234.438 74.7976C241.809 73.9363 248.687 70.5482 253.973 65.1749C259.259 59.8017 262.647 52.7536 263.596 45.1576L245.35 26.9111Z" fill="url(#paint4_linear)"/>
<path d="M239.966 25.5679H221.375C217.636 25.5679 214.604 28.5993 214.604 32.3388V50.9292C214.604 54.6686 217.636 57.7001 221.375 57.7001H239.966C243.705 57.7001 246.736 54.6686 246.736 50.9292V32.3388C246.736 28.5993 243.705 25.5679 239.966 25.5679Z" stroke="white" stroke-width="4" stroke-linecap="square" stroke-linejoin="round"/>
<path d="M239.679 32.514C240.767 32.514 241.648 31.6326 241.648 30.5454C241.648 29.4583 240.767 28.5769 239.679 28.5769C238.592 28.5769 237.711 29.4583 237.711 30.5454C237.711 31.6326 238.592 32.514 239.679 32.514Z" fill="white"/>
<path d="M230.67 49.9625C235.27 49.9625 238.999 46.2337 238.999 41.6341C238.999 37.0344 235.27 33.3057 230.67 33.3057C226.071 33.3057 222.342 37.0344 222.342 41.6341C222.342 46.2337 226.071 49.9625 230.67 49.9625Z" stroke="white" stroke-width="4" stroke-linecap="square" stroke-linejoin="round"/>
<path d="M135.5 74.6998C154.388 74.6998 169.7 59.388 169.7 40.4999C169.7 21.6119 154.388 6.30005 135.5 6.30005C116.612 6.30005 101.3 21.6119 101.3 40.4999C101.3 59.388 116.612 74.6998 135.5 74.6998Z" fill="#0066FF"/>
<path d="M135.5 78C156.211 78 173 61.2107 173 40.5C173 19.7893 156.211 3 135.5 3C114.789 3 98 19.7893 98 40.5C98 61.2107 114.789 78 135.5 78Z" stroke="#0000C9" stroke-width="5.00708" stroke-linecap="round" stroke-linejoin="round" stroke-dasharray="5.01 30.04"/>
<path d="M135.5 74.6998C154.388 74.6998 169.7 59.388 169.7 40.4999C169.7 21.6119 154.388 6.30005 135.5 6.30005C116.612 6.30005 101.3 21.6119 101.3 40.4999C101.3 59.388 116.612 74.6998 135.5 74.6998Z" fill="url(#paint5_linear)"/>
<path d="M145.651 24.438L134.821 30.7287L131.347 58.2857L146.049 72.9884C151.739 71.1414 156.845 67.8342 160.857 63.397C164.869 58.9598 167.647 53.5479 168.914 47.7014L145.651 24.438Z" fill="url(#paint6_linear)"/>
<path d="M141.103 24.3051C137.911 24.2918 134.029 24.464 132.962 25.3204C130.871 26.9976 131.34 30.2281 131.34 30.2281H131.347V36.1003L125.349 36.0699L127.221 41.7799L131.347 41.7925V58.2857H138.256V41.814L142.767 41.8277L144.35 36.166L138.256 36.1352V30.2949L145.635 30.3665L145.651 24.4379C145.651 24.4379 143.585 24.3155 141.103 24.3051L141.103 24.3051Z" fill="white"/>
<defs>
<linearGradient id="paint0_linear" x1="20.2135" y1="14.368" x2="61.555" y2="66.8237" gradientUnits="userSpaceOnUse">
<stop stop-color="#A10000"/>
<stop offset="1" stop-color="#FF0000" stop-opacity="0"/>
</linearGradient>
<linearGradient id="paint1_linear" x1="41.4209" y1="40.956" x2="63.7901" y2="63.0215" gradientUnits="userSpaceOnUse">
<stop stop-opacity="0.3"/>
<stop offset="1" stop-opacity="0"/>
</linearGradient>
<linearGradient id="paint2_linear" x1="212.468" y1="12.8532" x2="249.37" y2="67.635" gradientUnits="userSpaceOnUse">
<stop stop-color="#00009F"/>
<stop offset="0.461635" stop-color="#7500CB" stop-opacity="0.537255"/>
<stop offset="0.768403" stop-color="#F3B5FF" stop-opacity="0.227451"/>
<stop offset="1" stop-color="#FFCC00"/>
</linearGradient>
<linearGradient id="paint3_linear" x1="212.468" y1="12.8532" x2="249.37" y2="67.635" gradientUnits="userSpaceOnUse">
<stop stop-color="#00009F"/>
<stop offset="0.320269" stop-color="#7500CB" stop-opacity="0.537255"/>
<stop offset="0.596517" stop-color="#C30077" stop-opacity="0.717647"/>
<stop offset="0.837718" stop-color="#FF0000" stop-opacity="0.933333"/>
<stop offset="1" stop-color="#FFFF00"/>
</linearGradient>
<linearGradient id="paint4_linear" x1="232.971" y1="41.5339" x2="246.736" y2="57.7" gradientUnits="userSpaceOnUse">
<stop stop-opacity="0.6"/>
<stop offset="1" stop-opacity="0"/>
</linearGradient>
<linearGradient id="paint5_linear" x1="114.026" y1="14.9098" x2="155.483" y2="66.9224" gradientUnits="userSpaceOnUse">
<stop stop-color="#0047B2"/>
<stop offset="1" stop-color="#0066FF" stop-opacity="0"/>
</linearGradient>
<linearGradient id="paint6_linear" x1="134.821" y1="30.7287" x2="154.121" y2="52.5132" gradientUnits="userSpaceOnUse">
<stop stop-opacity="0.527778"/>
<stop offset="1" stop-opacity="0"/>
</linearGradient>
</defs>
</svg>
