<svg width="19" height="18" viewBox="0 0 19 18" fill="none" xmlns="http://www.w3.org/2000/svg">
<g clip-path="url(#clip0)">
<path d="M17.6216 13.1149C17.4992 12.8057 17.3359 12.5172 17.1523 12.2493C16.2135 10.848 14.7645 9.92068 13.1319 9.69399C12.9278 9.6734 12.7033 9.71458 12.54 9.83824C11.6829 10.4771 10.6625 10.8068 9.60124 10.8068C8.53999 10.8068 7.5196 10.4771 6.66245 9.83824C6.49917 9.71458 6.27468 9.65277 6.07062 9.69399C4.43796 9.92068 2.96858 10.848 2.05022 12.2493C1.86655 12.5172 1.70327 12.8264 1.58085 13.1149C1.51964 13.2385 1.54003 13.3828 1.60124 13.5064C1.76452 13.7949 1.96858 14.0835 2.15225 14.3307C2.43796 14.7223 2.74409 15.0726 3.09104 15.4023C3.37675 15.6908 3.70327 15.9587 4.02983 16.2266C5.64206 17.4425 7.58085 18.0813 9.58085 18.0813C11.5809 18.0813 13.5196 17.4424 15.1319 16.2266C15.4584 15.9793 15.7849 15.6908 16.0707 15.4023C16.3972 15.0726 16.7237 14.7223 17.0094 14.3307C17.2135 14.0628 17.3972 13.7949 17.5605 13.5064C17.6625 13.3828 17.6828 13.2385 17.6216 13.1149Z" fill="white"/>
<path d="M9.60121 0C7.02977 0 4.92773 2.10203 4.92773 4.67348C4.92773 7.24492 7.02977 9.34695 9.60121 9.34695C12.1727 9.34695 14.2747 7.24492 14.2747 4.67348C14.2747 2.10203 12.1727 0 9.60121 0Z" fill="white"/>
</g>
<defs>
<clipPath id="clip0">
<rect width="18" height="18" fill="white" transform="translate(0.599976)"/>
</clipPath>
</defs>
</svg>
